<?xml version="1.0" encoding="UTF-8" standalone="no"?>
<svg
   xmlns:dc="http://purl.org/dc/elements/1.1/"
   xmlns:cc="http://creativecommons.org/ns#"
   xmlns:rdf="http://www.w3.org/1999/02/22-rdf-syntax-ns#"
   xmlns:svg="http://www.w3.org/2000/svg"
   xmlns="http://www.w3.org/2000/svg"
   xmlns:sodipodi="http://sodipodi.sourceforge.net/DTD/sodipodi-0.dtd"
   xmlns:inkscape="http://www.inkscape.org/namespaces/inkscape"
   aria-labelledby="simpleicons-codewars-icon"
   role="img"
   viewBox="0 0 24 24"
   version="1.1"
   id="svg5"
   sodipodi:docname="codewarsgreen.svg"
   inkscape:version="0.92.3 (2405546, 2018-03-11)">
  <metadata
     id="metadata11">
    <rdf:RDF>
      <cc:Work
         rdf:about="">
        <dc:format>image/svg+xml</dc:format>
        <dc:type
           rdf:resource="http://purl.org/dc/dcmitype/StillImage" />
        <dc:title>Codewars icon</dc:title>
      </cc:Work>
    </rdf:RDF>
  </metadata>
  <defs
     id="defs9" />
  <sodipodi:namedview
     pagecolor="#ffffff"
     bordercolor="#666666"
     borderopacity="1"
     objecttolerance="10"
     gridtolerance="10"
     guidetolerance="10"
     inkscape:pageopacity="0"
     inkscape:pageshadow="2"
     inkscape:window-width="1920"
     inkscape:window-height="986"
     id="namedview7"
     showgrid="false"
     inkscape:zoom="9.8333333"
     inkscape:cx="-7.7796611"
     inkscape:cy="12"
     inkscape:window-x="-11"
     inkscape:window-y="-11"
     inkscape:window-maximized="1"
     inkscape:current-layer="svg5" />
  <title
     id="simpleicons-codewars-icon">Codewars icon</title>
  <path
     d="M.76 12.2l-.08-.04c-.18-.1-.32-.25-.42-.44-.14-.26-.2-.5-.2-.75l.02-.13c0-.2.05-.38.14-.55l.08-.15c.04-.08.1-.15.15-.22.06-.07.07-.16.05-.24l-.05-.16c-.06-.2-.1-.4-.1-.6L.32 8.8c0-.22.06-.44.2-.6l.1-.13c.07-.1.18-.16.3-.2.1-.03.17-.13.18-.25l.02-.34c0-.27.13-.52.33-.7l.24-.18c.05-.05.1-.1.14-.18.05-.06.06-.14.05-.2-.02-.1 0-.13.05-.14.16.06.26.04.33-.04l.13-.17.36-.4c.1-.1.14-.28.08-.42l-.12-.26c-.02-.06 0-.13.05-.15.13 0 .22.05.26.13l.04.07c.06.12.2.18.3.13.22-.08.4-.1.57-.1h.32c.22 0 .4-.15.44-.38.04-.28.14-.5.28-.65.15-.17.32-.3.52-.4.26-.14.42-.34.47-.6.07-.32.24-.55.47-.7l.76-.43.22-.13c.13-.08.25-.18.35-.3l.2-.24c.1-.1.2-.17.32-.2.1-.03.24-.05.36-.04l.4.03c.2 0 .36.05.52.12l.1.05c.1.04.2.02.25-.05L10 .7l.43-.45c.1-.1.22-.14.35-.12.13.02.26.07.38.13.18.1.33.14.5.14h.1c.22 0 .44.03.66.08l.15.04c.15.04.3-.02.4-.14.03-.05.1-.06.14-.02.03.02.04.04.05.07.02.2.14.35.3.4l.16.05c.17.05.32.16.42.3.1.15.22.3.36.4l.1.1c.1.1.24.14.38.13h.59c.24 0 .47.04.7.14.22.1.45.12.66.04.22-.07.45-.1.68-.07l.43.07c.2.02.4.12.52.27l.05.05c.1.1.2.23.3.37.06.13.2.2.34.2h.62c.15 0 .3.03.42.1.13.1.24.2.34.3l.1.13c.12.14.18.33.17.53 0 .16.12.3.28.3l.2.02c.14 0 .26.1.33.23l.1.2.26.58c.04.1.05.2.04.28 0 .1.03.18.1.22l.1.07c.13.1.2.25.18.42l-.07.47-.02.2c-.02.1.03.23.12.3.15.1.22.23.23.38v.2c0 .1-.02.22-.1.3-.06.08-.1.18-.1.3l.03.23c0 .16.1.3.2.4.14.1.22.26.24.42.04.25.05.45.05.65v.23c0 .08 0 .16.03.24.02.07.07.14.13.18l.2.15c.2.13.34.3.42.53.1.22.13.45.13.68v.08c0 .18-.02.37-.08.54-.05.18-.04.35.03.5.08.14.13.3.15.47.04.2.02.4-.05.56l-.02.07c-.05.12-.13.23-.23.32-.1.1-.2.16-.26.23-.06.06-.1.16-.07.25l.03.14c.05.2.05.4 0 .58v.08c-.04.15-.1.28-.16.4-.07.13-.17.23-.3.3l-.15.1c-.07.04-.12.13-.12.22 0 .1-.04.2-.1.26l-.15.2c-.1.13-.23.24-.37.3-.14.1-.26.2-.35.3-.1.12-.18.26-.22.4-.04.18-.18.28-.33.28h-.54c-.14 0-.27.1-.33.22-.07.16-.14.27-.23.37-.1.1-.16.22-.2.36-.02.12-.12.2-.22.16-.13-.06-.26 0-.32.1-.12.2-.24.35-.37.48l-.07.06c-.13.1-.3.18-.45.18-.18 0-.27.08-.3.2-.03.1-.05.23-.06.34-.02.12-.06.23-.1.33l-.05.06c-.1.15-.18.3-.28.43l-.04.06c-.13.17-.3.3-.5.35-.24.08-.45.1-.66.1h-.14c-.1 0-.2.06-.27.16l-.06.1-.06.12-.13.22c-.1.18-.25.3-.45.36-.2.05-.43.07-.64.06l-.16-.02c-.14 0-.27-.04-.4-.1-.1-.04-.24 0-.3.1-.1.14-.22.22-.35.26l-.3.1c-.2.05-.42.05-.63 0l-.16-.05c-.1 0-.2-.05-.28-.1-.1-.05-.2-.07-.3-.06l-.13.02c-.2.02-.38 0-.56-.05l-.27-.06c-.12-.04-.23-.12-.3-.23-.05-.1-.16-.18-.3-.2H9.9c-.2-.03-.38-.1-.5-.25L9 22.5l-.14-.12-.22-.16-.13-.1c-.15-.1-.33-.18-.52-.2l-.6-.1c-.06 0-.1-.02-.16-.03L7 21.74c-.1-.02-.2-.1-.27-.2-.06-.1-.17-.14-.27-.1-.2.08-.36.1-.52.13H5.8c-.26.02-.5-.02-.74-.13-.24-.1-.4-.25-.55-.44-.12-.17-.3-.3-.52-.34l-.28-.06c-.2-.04-.4-.12-.58-.24-.2-.14-.3-.27-.38-.43-.08-.15-.13-.32-.14-.5v-.08c-.02-.2-.16-.38-.35-.43-.23-.07-.4-.17-.55-.3-.14-.13-.22-.32-.22-.52l.02-.44c0-.17-.05-.32-.17-.43-.12-.12-.2-.27-.2-.43l-.03-.36c-.02-.26-.07-.52-.13-.78-.06-.23.03-.46.22-.57l.07-.05c.1-.07.14-.2.08-.32l-.08-.1c-.1-.1-.2-.17-.3-.2-.08-.02-.1-.1-.1-.15l.1-.12c.06-.07.05-.18 0-.24-.08-.08-.12-.18-.13-.28l-.02-.7c0-.14.02-.28.06-.42.04-.12 0-.26-.12-.32zm9.9-1.32c.07-.07.06-.2 0-.25-.1-.08-.17-.17-.23-.27l-.1-.16c-.07-.13-.16-.24-.26-.34l-.02-.02c-.1-.08-.17-.18-.23-.3-.05-.1-.05-.2 0-.3l.06-.1c.06-.1.1-.24.1-.36v-.04c0-.1-.04-.2-.1-.3-.04-.08-.08-.18-.1-.28V8.1c-.03-.12 0-.25.08-.35.08-.13.14-.25.17-.4v-.02c.04-.1.02-.23-.04-.33s-.08-.2-.04-.32l.07-.2c.06-.18.15-.34.27-.48l.14-.15.1-.12.06-.06c.06-.06.07-.16.02-.24-.05-.1-.08-.2-.06-.3l.02-.14c.03-.2.1-.4.23-.56l.04-.04c.15-.2.34-.33.56-.4l.27-.1c.12-.04.2-.17.2-.3 0-.16.05-.3.14-.43l.05-.05c.1-.17.22-.34.3-.52l.07-.13c.02-.03.03-.07.03-.1 0-.17-.1-.32-.26-.33L11.76 2c-.25-.02-.5 0-.74 0l-.85.1c-.13 0-.23.1-.24.24 0 .14-.1.26-.22.3l-.36.1-.1.03-.3.1c-.22.07-.4.23-.5.45l-.08.13c-.1.22-.27.4-.48.53-.2.13-.3.34-.32.58v.1c-.02.2-.08.4-.2.54l-.05.08c-.08.1-.1.23-.05.34.05.12.08.25.07.38v.53c0 .14-.1.26-.2.3-.14.05-.23.16-.27.3l-.05.2c-.04.2.03.4.2.52.16.12.26.3.3.52v.18c.03.2.14.4.32.5.18.12.32.3.4.5l.05.16c.08.22.26.35.46.37h.06c.18 0 .34.1.44.26.1.16.26.27.44.3l.28.08c.17.05.33.14.46.27l.02.02c.1.08.26.07.35-.04l.07-.08zm1.14-.92c.1.06.2.03.24-.06l.03-.05c.07-.14.16-.28.26-.4l.2-.3c.03 0 .04-.02.05-.04l.24-.32c.1-.1.22-.17.36-.17.13 0 .24-.07.3-.2.04-.14.1-.27.22-.38l.05-.06c.1-.1.2-.15.3-.2.13-.02.25-.04.37-.04h.3c.12 0 .22-.05.28-.15.06-.1.15-.17.25-.22l.1-.04c.16-.07.34-.12.52-.14l.2-.02c.12 0 .25 0 .37.07.1.07.23.06.33-.02l.07-.04c.15-.1.32-.18.5-.2h.02c.2-.04.38-.04.58-.03h.1c.2.03.37.1.5.25l.03.04c.1.1.26.18.4.18h.17c.05 0 .1-.02.13-.07.03-.03.08-.06.13-.06h.1c.14 0 .27.04.4.08l.17.07c.16.05.33.1.5.12h.12c.08 0 .13-.05.13-.12 0-.1-.02-.2-.07-.28L20.68 7c-.08-.13-.14-.27-.2-.4l-.02-.05c-.05-.1-.05-.2 0-.3V6.2c.02-.08-.02-.17-.1-.2L20.28 6c-.16-.05-.3-.14-.4-.27l-.1-.1c-.1-.1-.16-.25-.2-.4-.05-.13-.16-.23-.3-.23h-.42c-.15-.02-.28-.1-.37-.22l-.04-.05c-.07-.1-.13-.22-.17-.34-.05-.1-.16-.16-.26-.13l-.12.04c-.2.07-.4.1-.6.08l-.16-.02c-.17 0-.33-.07-.46-.17l-.1-.07c-.08-.06-.16-.1-.25-.14-.1-.04-.18-.02-.24.05l-.05.06c-.1.1-.24.18-.38.2l-.54.03c-.1 0-.2.05-.27.12-.08.07-.17.12-.27.14h-.02c-.1 0-.2.07-.3.14v.02c-.1.1-.23.15-.36.15l-.04.02c-.12 0-.24 0-.36.03h-.12c-.17.03-.3.17-.34.35l-.04.23c-.03.16-.1.3-.2.43-.1.12-.22.2-.37.2h-.15-.02c-.1.02-.2.13-.18.25.02.17 0 .32-.03.47l-.04.17c-.04.15-.14.27-.27.32l-.06.03h-.02c-.06.04-.1.13-.05.2.06.1.08.2.07.3l-.03.32c0 .12-.05.23-.1.33-.06.1-.06.2-.02.3l.1.22c.05.1.06.2.03.32-.03.1-.05.2-.04.3 0 .1.06.2.14.24l.02.02zm7.9 7.23c.1.1.25.14.37.06l.2-.13c.1-.07.18-.17.22-.3v-.02l.1-.3.06-.1.04-.1.04-.07c.04-.08.1-.14.2-.17l.04-.02c.08-.02.13-.1.13-.18 0-.1.05-.18.1-.25l.08-.07.2-.26v-.02c.06-.08.1-.17.12-.27.02-.1 0-.2-.04-.3l-.02-.04c-.04-.1-.06-.17-.07-.26l-.03-.28-.03-.3c0-.1.04-.2.1-.3.07-.08.12-.18.16-.28v-.04l.02-.02c.02-.1-.03-.2-.12-.2-.1-.05-.2-.13-.23-.25l-.03-.06c-.05-.18-.08-.36-.08-.54l.02-.5v-.03c0-.17-.14-.3-.3-.3h-.02c-.2 0-.36-.06-.5-.2l-.08-.1-.2-.23-.26-.3c-.1-.14-.2-.26-.33-.38-.1-.1-.25-.2-.4-.22l-.2-.03c-.1-.02-.23-.07-.34-.14-.08-.06-.2-.04-.28.04l-.13.14-.06.04c-.07.02-.14-.02-.17-.1-.04-.12-.04-.26.02-.38v-.06c0-.07-.06-.12-.12-.1h-.16c-.18 0-.36-.02-.53-.1l-.1-.04c-.1-.05-.22-.08-.33-.08-.1 0-.2.02-.3.08l-.04.03c-.12.08-.26.12-.4.13h-.33c-.15 0-.3.05-.4.13-.13.08-.27.13-.42.16l-.27.04c-.12.03-.25.08-.36.17-.1.1-.24.16-.37.2l-.05.02c-.16.05-.3.15-.4.3l-.12.12c-.07.1-.07.22 0 .32.06.1.18.13.3.1l.15-.06c.08-.03.17 0 .24.04.06.05.15.08.24.07l.25-.03c.14 0 .28 0 .42.04.15.05.28.1.4.2s.25.14.4.16c.15.02.3.05.44.1l.1.02c.1.03.18.1.24.2.05.08.1.2.1.3v.03c0 .12.1.2.2.2h.06c.16 0 .33.02.5.07l.07.03c.1.04.2.1.27.2.08.1.13.2.16.3l.03.14c.03.15.04.3.04.46v.05c0 .1.07.2.18.24.1.02.22.06.33.12l.05.02c.13.08.26.18.36.3l.05.07c.13.15.2.34.2.53v.07c0 .15-.03.3-.08.44-.04.12 0 .26.13.3l.07.05c.15.06.28.17.38.3.1.15.14.32.14.5v.3c-.02.1-.05.18-.1.25s-.05.17 0 .24l.06.1zm-6.4-5.12h-.02c-.04 0-.06.05-.05.1l.04.2c.04.16.06.32.08.48.02.16.1.3.22.4h.04c.15.12.24.3.25.48v.5c-.02.1 0 .2.06.28l.05.05c.1.12.14.26.15.4l.03.55c0 .13-.08.24-.2.26l-.1.02c-.07 0-.1.08-.1.15 0 .08.03.17.06.25v.02c.03.1.04.2.03.3l-.04.27c-.04.2-.1.38-.2.56l-.07.12c-.05.1-.12.16-.2.2-.1.04-.17.12-.2.22l-.08.36c-.05.2-.14.4-.26.6h-.02c-.12.16-.27.3-.45.4l-.12.08-.3.15c-.1.04-.16.13-.18.24l-.05.33c-.03.2-.1.37-.24.5l-.13.15-.15.15L11 21c-.12.14-.3.2-.5.17l-.36-.07-.33-.04h-.09c-.04.04-.05.1-.02.16.07.12.18.2.3.2l.22.04c.1 0 .22.05.32.1.1.07.2.12.32.15h.02c.13.05.27.06.4.05l.15-.02c.17-.02.33 0 .47.06l.12.04c.05.02.13 0 .18-.05.06-.06.12-.1.2-.13l.08-.02c.13-.04.26-.06.4-.06h.08c.12 0 .23.02.33.08l.04.02c.07.03.15 0 .2-.06.03-.07.1-.14.17-.2l.25-.17.16-.1.08-.05c.1-.07.24-.1.36-.1l.36-.03c.14-.02.26-.12.3-.26.04-.15.1-.3.2-.43s.2-.24.3-.34c.13-.1.26-.15.4-.16h.08c.16-.03.28-.18.27-.34v-.02V18.77c.02-.1.06-.23.12-.33l.2-.3.08-.1c.06-.05.1-.12.17-.2l.1-.13c.06-.1.06-.23-.02-.32-.1-.1-.15-.24-.17-.38v-.04c-.02-.16-.02-.33.03-.5v-.05c.05-.13.12-.26.2-.38.08-.1.07-.24-.03-.32l-.17-.15c-.14-.12-.22-.3-.24-.48l-.02-.2c0-.06 0-.13-.02-.2l-.02-.15c-.02-.17-.12-.3-.26-.4l-.07-.02c-.1-.06-.2-.15-.28-.27-.08-.1-.12-.24-.15-.38l-.03-.17c0-.06-.04-.1-.1-.13l-.16-.05-.32-.1c-.1-.02-.2-.1-.27-.17h-.02c-.06-.08-.16-.08-.22-.02l-.1.1c-.02.03-.04.04-.07.03-.06 0-.1-.05-.08-.1.02-.16-.04-.32-.17-.42l-.13-.1-.3-.2c-.08-.03-.2 0-.24.1l-.04.06c0 .02-.03.03-.04.04-.04 0-.1 0-.1-.05l-.03-.05c-.03-.06-.1-.1-.16-.12zm-1.2 1l-.05-.05c-.05-.04-.1-.03-.15.02-.07.12-.13.25-.16.38v.02c-.03.13-.15.22-.27.2h-.1-.02c-.14 0-.25.12-.25.26 0 .18-.06.36-.17.5l-.06.06c-.1.13-.25.22-.4.27l-.08.02c-.1.03-.18.1-.2.22 0 .1-.06.2-.14.28l-.1.08c-.12.13-.3.2-.48.22l-.5.05c-.16 0-.3.1-.4.25-.1.15-.25.25-.4.27l-.22.02c-.16.02-.33.02-.5-.02l-.1-.02-.27-.07c-.1-.03-.18 0-.24.07l-.1.13c-.13.15-.32.22-.5.2l-.65-.08c-.1 0-.18-.05-.27-.1-.1-.06-.17-.13-.24-.2l-.25-.3c-.03-.02-.08-.03-.13-.02l-.14.06-.56.14c-.1.03-.23 0-.33-.06-.1-.08-.22-.1-.34-.1H3.2c-.12.03-.2.16-.16.28l.04.2c.03.1.02.22-.03.32s-.04.2.03.3l.06.08c.08.12.2.22.3.32.1.1.2.2.28.33l.15.27c.08.14.2.22.36.22.15 0 .3.05.42.15l.3.28c.08.07.2.08.28.02l.05-.02c.06 0 .1.04.1.1v.05c0 .13.1.25.23.3l.45.1c.16.05.32.1.47.2h.08c.08 0 .15-.07.14-.16v-.35c0-.1.04-.2.12-.24l.05-.02c.05.02.1.06.08.1v.17c0 .13.04.25.13.34.1.1.23.12.34.08.12-.05.24-.06.37-.05l.37.02c.18.02.35 0 .5-.07.18-.06.33-.14.47-.25l.06-.04.3-.27c.1-.1.23-.15.35-.15h.4c.2-.02.38-.2.4-.4l.04-.2c0-.13.06-.25.15-.35.1-.1.2-.16.3-.2l.12-.05c.17-.07.3-.22.36-.4l.06-.24c.05-.2.15-.4.3-.53l.02-.02c.12-.1.14-.3.06-.44l-.03-.07c-.07-.1-.08-.25-.03-.38.05-.14.1-.26.18-.38l.1-.14c.04-.08.04-.2-.02-.27-.06-.08-.1-.18-.1-.28l-.02-.14v-.34c.02-.1 0-.23-.03-.33l-.04-.12zm-1.43-.76v-.03c0-.1-.06-.16-.14-.16h-.26c-.1.02-.2.02-.28 0h-.45c-.23 0-.45-.04-.67-.1l-.24-.06-.2-.06-.45-.15c-.24-.07-.42-.23-.53-.45l-.05-.1c-.07-.15-.22-.23-.37-.2-.17 0-.34 0-.5-.08l-.12-.05c-.23-.1-.4-.3-.4-.57l-.04-.27c-.03-.14-.12-.27-.24-.32-.14-.06-.27-.14-.4-.23l-.05-.03c-.15-.12-.28-.28-.35-.47l-.02-.06c-.05-.16-.06-.33-.02-.5l.02-.06c.04-.13.05-.26.05-.4 0-.12-.05-.24-.14-.33l-.14-.13c-.16-.13-.26-.32-.27-.53-.02-.22-.02-.43.02-.64V6.3v-.03c0-.12-.1-.2-.2-.2H4.2c-.13 0-.24.08-.3.2-.05.14-.13.25-.22.36l-.04.05-.2.2-.1.1c-.1.1-.16.25-.18.4-.02.15-.06.3-.12.44l-.02.05c-.05.12-.13.23-.23.3-.1.08-.17.2-.17.32l-.02.46c0 .2-.03.4-.1.6l-.02.08c-.05.13 0 .27.12.33l.42.18.04.02c.03 0 .04.02.05.05.03.04 0 .1-.03.1l-.1.05c-.06.02-.1.08-.12.15l-.02.1v.02l-.1.56c-.02.08-.02.17-.02.26 0 .08.05.15.12.18l.22.1c.1.06.22.13.3.2l.1.08c.03.04.08.08.12.1l.04.04c.07.06.12.14.14.23l.1.45c0 .12.1.22.2.25l.16.05s.03 0 .05.02l.2.06c.16.05.3.14.42.26.12.1.24.23.34.37l.04.04c.08.1.2.15.32.12s.25-.04.38-.04h.15c.1 0 .23.03.34.1.1.06.23.1.35.15h.03c.12.05.25.03.35-.04.1-.08.23-.12.36-.12l.47.03c.1 0 .2-.02.25-.1h.02l.17-.16.05-.05c.08-.1.2-.14.32-.15h.45c.12 0 .23-.1.28-.2.05-.1.15-.18.27-.2l.2-.04c.08 0 .15-.07.18-.16.03-.1.08-.18.15-.24l.16-.16c.1-.1.15-.2.17-.32z"
     id="path3"
     style="fill:#053c66;fill-opacity:1" />
  <path
     style="fill:none;fill-opacity:1;stroke:#009688;stroke-width:0.10169491;stroke-opacity:0"
     d="m 12.19322,23.751929 c -0.223728,-0.05014 -0.624948,-0.118432 -0.891601,-0.151769 -0.310961,-0.03888 -0.580682,-0.149452 -0.752137,-0.308351 -0.168617,-0.156269 -0.388657,-0.247741 -0.5959476,-0.247741 -0.1830358,0 -0.390465,-0.07507 -0.468201,-0.169436 C 9.4085695,22.781442 9.1298155,22.534122 8.86588,22.325032 8.4849233,22.023238 8.2397529,21.920202 7.6765767,21.825209 7.2863954,21.759398 6.9134198,21.640802 6.8477419,21.561665 6.7561283,21.451277 6.569994,21.432495 6.0482273,21.480988 5.2971672,21.550792 4.9616616,21.438598 4.5256171,20.971822 4.3914861,20.828238 4.0407864,20.640713 3.7462845,20.555098 3.1732282,20.388506 2.6847458,19.936097 2.6847458,19.571952 c 0,-0.334664 -0.1886699,-0.584038 -0.6010273,-0.794407 -0.4351782,-0.222011 -0.5176168,-0.363886 -0.5176168,-0.890808 0,-0.198569 -0.086389,-0.503725 -0.191976,-0.678124 C 1.2558327,17.013228 1.1545993,16.585575 1.1103688,16.094394 1.0446427,15.3645 1.056629,15.280454 1.2524702,15.098 1.4251171,14.937156 1.445276,14.859357 1.3570323,14.694473 1.2969063,14.582126 1.1887476,14.467579 1.1166794,14.439924 0.97292603,14.384761 0.95015853,14.221726 0.92322485,13.054622 0.90731821,12.365348 0.87684103,12.248769 0.67569038,12.107771 0.13188318,11.726585 -0.02617868,10.781475 0.35163976,10.170152 0.53750809,9.8694105 0.54923062,9.7683895 0.45648125,9.266662 0.33131694,8.5895859 0.42039493,8.2978937 0.84912599,7.9809192 1.069229,7.81819 1.159322,7.6670605 1.159322,7.4605711 1.159322,7.1062819 1.3998942,6.6160078 1.6140677,6.5338216 1.7005187,6.5006473 1.8239636,6.3578137 1.8883899,6.2164134 1.952816,6.0750131 2.0553862,5.9584971 2.1163236,5.9574889 2.1772609,5.9564821 2.3809644,5.7704127 2.568998,5.5440047 2.8431416,5.2139134 2.899054,5.0732361 2.8512014,4.8339734 2.7898931,4.5274315 2.9222562,4.416204 3.0261539,4.6869573 3.0728269,4.8085852 3.2098184,4.8258107 3.7234748,4.7746391 4.4697669,4.7002919 4.7184985,4.5952102 4.7190242,4.3540491 4.7196649,4.0622646 5.1073238,3.5224639 5.4698452,3.3085711 5.7006632,3.1723851 5.8795573,2.9449027 6.0182088,2.6112701 6.1955293,2.1845892 6.3133531,2.0661229 6.8700115,1.7548217 7.2253211,1.5561214 7.6735606,1.2310168 7.8660992,1.0323673 8.1684118,0.72045993 8.2807455,0.67118644 8.6895197,0.67118644 c 0.2603426,0 0.6181446,0.0504756 0.7951158,0.11216811 0.2979676,0.10387207 0.3517617,0.0850685 0.7273325,-0.25423729 0.442196,-0.39949749 0.517318,-0.42229099 0.833713,-0.25296208 0.341322,0.18267026 1.703494,0.32103516 1.862376,0.18917412 0.10327,-0.0857063 0.161907,-0.0628047 0.247188,0.0965435 0.06149,0.11489683 0.24861,0.27964951 0.415819,0.36611705 0.16721,0.0864674 0.458836,0.32614965 0.648058,0.53262685 0.32598,0.355706 0.388605,0.3797668 1.192968,0.4583493 0.46691,0.045615 1.277367,0.092423 1.801015,0.1040189 l 0.952089,0.021083 0.383762,0.4322034 c 0.34792,0.3918361 0.428061,0.4322034 0.858047,0.4322034 0.769903,0 1.170183,0.3227609 1.421403,1.14613 0.03021,0.099016 0.190702,0.2071832 0.356648,0.2403722 0.299022,0.059805 0.557748,0.4483668 0.769641,1.1558707 0.04188,0.1398305 0.145318,0.333053 0.229865,0.4293836 0.110782,0.1262206 0.139874,0.3192819 0.104143,0.6911311 -0.03938,0.4097884 -0.0084,0.5682869 0.150315,0.7701077 0.142544,0.1812166 0.180386,0.333043 0.131902,0.5292079 -0.187824,0.7599228 -0.182392,0.8382016 0.08493,1.223954 0.208289,0.3005614 0.266179,0.5057437 0.266179,0.9434271 0,0.505151 0.03429,0.592568 0.354016,0.902457 0.443017,0.429388 0.559309,0.779137 0.558547,1.679823 -3.05e-4,0.391525 0.01131,0.949395 0.02587,1.239712 0.02289,0.456378 -0.01131,0.567285 -0.252589,0.819124 -0.239035,0.249498 -0.279061,0.376274 -0.279061,0.883873 0,0.545517 -0.02828,0.619267 -0.355933,0.928285 -0.195762,0.184628 -0.355932,0.404865 -0.355932,0.489416 0,0.08455 -0.227591,0.349772 -0.505758,0.589379 -0.278167,0.239607 -0.558536,0.563068 -0.623043,0.7188 -0.116273,0.280708 -0.26527,0.351387 -0.85425,0.40522 -0.249155,0.02277 -0.361014,0.125139 -0.610169,0.558386 -0.205019,0.356498 -0.371796,0.531614 -0.508475,0.533901 -0.111864,0.0019 -0.33038,0.162557 -0.485591,0.357081 -0.157356,0.197211 -0.426392,0.391044 -0.608127,0.438136 -0.278841,0.07226 -0.337871,0.144859 -0.408612,0.502573 -0.05079,0.25683 -0.229082,0.583083 -0.462201,0.845776 -0.335376,0.377921 -0.442168,0.433679 -0.918219,0.479421 -0.490915,0.04717 -0.560475,0.08625 -0.784119,0.440527 -0.336704,0.533373 -0.571589,0.636726 -1.297472,0.570905 -0.504536,-0.04575 -0.65549,-0.02052 -0.882792,0.147528 -0.322598,0.238507 -0.905789,0.311084 -1.474901,0.183547 z m 0.172934,-1.989592 c 0.215127,-0.111246 0.440985,-0.143001 0.71054,-0.0999 0.340403,0.05443 0.449501,0.01952 0.787251,-0.251899 0.23858,-0.191729 0.557639,-0.337293 0.814947,-0.371805 0.362805,-0.04866 0.450619,-0.111127 0.6183,-0.43981 0.220106,-0.431441 0.64757,-0.809095 0.915812,-0.809095 0.223472,0 0.30225,-0.198931 0.30225,-0.76324 0,-0.34798 0.07541,-0.54031 0.355932,-0.907817 0.363223,-0.475847 0.435329,-0.708549 0.254238,-0.820469 -0.137178,-0.08478 -0.128782,-0.724212 0.01472,-1.121056 0.100888,-0.278999 0.08744,-0.361345 -0.100821,-0.61739 -0.11948,-0.162498 -0.25872,-0.51945 -0.309424,-0.793223 -0.06858,-0.370311 -0.170971,-0.559426 -0.399852,-0.738553 -0.169214,-0.13243 -0.338293,-0.380244 -0.375731,-0.5507 -0.04611,-0.209951 -0.155238,-0.341431 -0.338311,-0.407614 -0.148632,-0.05373 -0.368694,-0.147831 -0.489027,-0.209109 -0.120331,-0.06128 -0.280143,-0.09096 -0.355137,-0.06596 -0.07499,0.025 -0.182472,-0.04536 -0.238841,-0.156346 -0.16755,-0.329893 -0.642444,-0.637381 -0.776835,-0.50299 -0.08483,0.08483 -0.162557,0.08444 -0.300183,-0.0015 -0.102143,-0.06379 -0.206899,-0.0948 -0.232792,-0.0689 -0.108561,0.108562 0.156333,1.064411 0.343235,1.238537 0.141717,0.132029 0.203068,0.320374 0.203068,0.623415 0,0.238825 0.06719,0.52306 0.149308,0.631631 0.08212,0.108572 0.150763,0.409439 0.152542,0.668593 0.0026,0.375956 -0.03511,0.481218 -0.186486,0.520803 -0.161752,0.0423 -0.182586,0.123858 -0.141327,0.55325 0.05146,0.535525 -0.222888,1.270698 -0.516186,1.383248 -0.07922,0.0304 -0.172827,0.207653 -0.208018,0.393898 -0.09858,0.521711 -0.422214,0.971045 -0.860421,1.194601 -0.403825,0.206016 -0.525006,0.374719 -0.525006,0.730888 0,0.10854 -0.192635,0.40633 -0.428079,0.661756 -0.427057,0.463302 -0.429342,0.464254 -0.956332,0.39841 -0.5347248,-0.06681 -0.7588363,0.03393 -0.5187552,0.233177 0.218853,0.181632 1.1132202,0.46126 1.6997762,0.531443 0.307628,0.03681 0.573036,0.07365 0.589796,0.08188 0.01676,0.0082 0.172393,-0.05844 0.34585,-0.148135 z M 6.7525424,18.982273 c 0,-0.164495 0.045763,-0.327366 0.1016949,-0.361934 0.055932,-0.03457 0.1023957,0.01993 0.1032522,0.121117 0.0035,0.413877 0.1531374,0.483058 0.9783495,0.452325 0.8213351,-0.03059 1.1757022,-0.151411 1.5021964,-0.512183 0.1187156,-0.131179 0.3174329,-0.213801 0.5142213,-0.213801 0.4168603,0 0.6795773,-0.199974 0.8200783,-0.624221 0.06823,-0.206027 0.260763,-0.438836 0.484514,-0.585871 0.237279,-0.155923 0.413678,-0.376157 0.488723,-0.610169 0.06459,-0.201399 0.186444,-0.44523 0.270795,-0.541846 0.105958,-0.121365 0.13473,-0.290497 0.09308,-0.547152 -0.03838,-0.236512 -0.006,-0.476535 0.08922,-0.660603 0.140762,-0.272204 0.13517,-0.957452 -0.01382,-1.69285 -0.06598,-0.325703 -0.308766,-0.283039 -0.434023,0.07627 -0.06861,0.196831 -0.17598,0.305085 -0.302581,0.305085 -0.235792,0 -0.373629,0.158574 -0.462961,0.532612 -0.03657,0.153105 -0.191605,0.35719 -0.344531,0.45352 -0.152925,0.09633 -0.442627,0.348604 -0.6437807,0.560609 -0.2904754,0.306143 -0.4405856,0.385462 -0.7294856,0.385462 -0.2398294,0 -0.4668935,0.08679 -0.6665086,0.254754 -0.3779479,0.318022 -0.7892986,0.404705 -1.278941,0.269509 -0.3272629,-0.09036 -0.4021255,-0.07775 -0.5477348,0.09231 -0.1270238,0.148353 -0.3002886,0.196982 -0.7018441,0.196982 -0.4532357,0 -0.5879766,-0.04811 -0.8986149,-0.320853 -0.3486962,-0.30616 -0.3865162,-0.316029 -0.8257977,-0.215508 -0.3187082,0.07293 -0.5469504,0.07266 -0.7417541,-9.15e-4 -0.4709751,-0.177773 -0.6019382,-0.05375 -0.6019382,0.570028 0,0.48319 0.038856,0.590169 0.3068998,0.844962 0.1687949,0.16045 0.3722907,0.416912 0.4522129,0.569916 0.081133,0.155321 0.2680133,0.308417 0.4231245,0.346632 0.1527962,0.03764 0.4150994,0.169756 0.582896,0.293581 0.1677966,0.123826 0.3564614,0.206224 0.4192551,0.183108 0.062794,-0.02312 0.1375015,0.04719 0.1660172,0.156233 0.034237,0.130922 0.2199735,0.249631 0.5468466,0.349502 0.7595322,0.232115 0.850932,0.218509 0.850932,-0.126616 z M 20.189637,17.240304 c 0.111861,-0.05987 0.293948,-0.320125 0.404638,-0.578354 0.11069,-0.258228 0.290734,-0.532179 0.400099,-0.608782 0.109366,-0.0766 0.198846,-0.186667 0.198846,-0.244589 0,-0.05792 0.0951,-0.226205 0.211321,-0.373963 0.185242,-0.235496 0.202894,-0.352571 0.143034,-0.948627 -0.04542,-0.452324 -0.02559,-0.798044 0.05924,-1.032634 0.114675,-0.31713 0.105387,-0.380802 -0.09219,-0.631976 -0.161693,-0.20556 -0.21971,-0.420101 -0.21971,-0.812472 0,-0.560881 -0.08337,-0.691382 -0.508474,-0.795931 -0.140385,-0.03452 -0.478282,-0.335836 -0.754536,-0.672837 -0.427049,-0.520955 -0.58165,-0.6339606 -1.055931,-0.7718376 -0.393578,-0.1144166 -0.587268,-0.1298887 -0.664107,-0.053049 -0.18241,0.1824101 -0.271189,0.1223766 -0.271189,-0.1833823 0,-0.2699102 -0.03633,-0.2974723 -0.483051,-0.3664999 -1.120277,-0.1731049 -2.005003,-4.475e-4 -3.453431,0.6739472 -0.696519,0.3243016 -0.987102,0.6307436 -0.846762,0.8929706 0.06784,0.126763 0.268399,0.170617 0.861103,0.188292 0.542756,0.01618 0.885232,0.08337 1.150981,0.225806 0.208074,0.111522 0.471779,0.202767 0.586009,0.202767 0.298653,0 0.640517,0.269578 0.678195,0.534793 0.02218,0.156151 0.112434,0.237413 0.286617,0.258072 0.701889,0.08325 0.985432,0.366307 1.039262,1.037498 0.02364,0.294787 0.08956,0.384439 0.384467,0.522903 0.583036,0.273744 0.761651,0.543547 0.762215,1.151345 4.07e-4,0.476738 0.03811,0.570372 0.344831,0.857148 0.327661,0.306354 0.341329,0.347306 0.282299,0.845732 -0.08387,0.70816 0.09641,0.929746 0.556224,0.68366 z M 7.7875891,14.126728 c 0.2881022,-0.03056 0.5449917,-0.126994 0.6513546,-0.244523 0.1123719,-0.12417 0.3107894,-0.194069 0.5508868,-0.194069 0.2402153,0 0.4385166,-0.0699 0.551045,-0.194244 0.096683,-0.106834 0.2800242,-0.220405 0.4074238,-0.252381 0.2752987,-0.0691 0.8173887,-0.809522 0.7401117,-1.0109 C 10.649934,12.130339 10.36022,12.073524 9.6849545,12.033824 8.4924366,11.963713 7.8480422,11.743652 7.5003251,11.287772 7.2911174,11.013486 7.1651284,10.942373 6.8883922,10.942373 c -0.4112871,0 -0.8468908,-0.375795 -0.8492715,-0.732666 C 6.0370817,9.9040832 5.9618071,9.8068885 5.5187448,9.5378003 5.053907,9.2554871 4.8854903,8.8656701 4.9738342,8.2765508 5.0335155,7.8785678 5.0078952,7.7866185 4.752875,7.4835441 4.5192458,7.2058916 4.4644068,7.0429245 4.4644068,6.6262918 4.4644068,6.1889889 4.433914,6.107669 4.2610169,6.0838808 3.9849446,6.0458971 3.2431248,6.9217489 3.0994487,7.4553209 3.0387793,7.6806298 2.8977705,7.9811319 2.7860958,8.1231033 2.6744211,8.2650746 2.5830508,8.5344865 2.5830508,8.7217964 c 0,0.1873098 -0.046515,0.5004307 -0.1033665,0.6958241 -0.089387,0.3072134 -0.075449,0.3782452 0.1030555,0.5252059 0.1135321,0.09347 0.2630132,0.1889936 0.3321801,0.2122756 0.099065,0.03335 0.099432,0.07424 0.00173,0.192685 -0.068216,0.08269 -0.1495771,0.399035 -0.1808022,0.702978 l -0.056773,0.552625 0.4838703,0.305085 c 0.3538048,0.223077 0.5117482,0.40076 0.5875818,0.661017 0.1449293,0.497388 0.2114734,0.575789 0.545401,0.642575 0.1613588,0.03227 0.4819497,0.239854 0.7124243,0.461293 0.3756312,0.360907 0.4597523,0.397159 0.8119689,0.349916 0.2572925,-0.03451 0.4947791,0.0038 0.6879971,0.110868 0.1735223,0.09619 0.3998016,0.138744 0.54931,0.103304 0.1398305,-0.03315 0.4683133,-0.08297 0.729961,-0.11072 z M 10.59661,11.023729 c 0.201719,-0.201719 0.143726,-0.3737 -0.336434,-0.997703 C 9.8399162,9.4798667 9.8118637,9.4079213 9.9235719,9.1627485 10.018271,8.9549061 10.018251,8.7936429 9.9234809,8.4393087 9.8292667,8.0870524 9.8289819,7.9324089 9.9222281,7.7594627 9.9886145,7.6363344 10.049416,7.2761687 10.057342,6.9590942 10.069042,6.491108 10.127852,6.3092614 10.369776,5.9929925 10.608983,5.680276 10.661256,5.5214476 10.63465,5.1881668 10.59444,4.684462 10.939482,4.2092163 11.489896,4.0101834 c 0.240915,-0.087116 0.374581,-0.2107643 0.417401,-0.3861186 0.03464,-0.1418798 0.190581,-0.4867767 0.346524,-0.7664377 0.433671,-0.7777274 0.33531,-0.8644068 -0.980908,-0.8644068 -0.927151,0 -1.088694,0.02595 -1.266133,0.2033899 -0.1118647,0.1118644 -0.2033902,0.2437198 -0.2033902,0.293012 0,0.049292 -0.2107502,0.1426898 -0.4683338,0.2075501 C 9.0612532,2.7661165 8.7651276,2.9295345 8.6221333,3.0906009 8.4876096,3.2421263 8.19497,3.5623616 7.9718232,3.8022349 7.7486764,4.0421081 7.5658198,4.3395657 7.5654752,4.4632518 7.5651294,4.5869379 7.4895454,4.8254237 7.397508,4.9932203 7.2831297,5.2017477 7.2371753,5.50034 7.2523096,5.9366586 7.2715567,6.4915473 7.240332,6.6155612 7.0134971,6.8851391 c -0.3276839,0.3894301 -0.329336,0.641522 -0.00672,1.0249323 0.1398305,0.1661792 0.2542372,0.4129077 0.2542372,0.5482856 0,0.1378986 0.1546545,0.4173258 0.3516798,0.6354092 0.1934238,0.2140971 0.3977373,0.5104084 0.4540301,0.6584697 0.064336,0.1692175 0.2075557,0.2940081 0.3856084,0.3359901 0.155792,0.03673 0.3976648,0.169072 0.5374953,0.294088 0.1398305,0.125015 0.4035755,0.277121 0.5860998,0.338014 0.1825244,0.06089 0.4329613,0.181526 0.5565263,0.268074 0.270295,0.189322 0.30734,0.192141 0.464153,0.03533 z m 1.834431,-1.6069207 c 0.27754,-0.3935498 0.555538,-0.6625949 0.782732,-0.7575227 0.193781,-0.080967 0.352329,-0.2148701 0.352329,-0.2975629 0,-0.2460901 0.505603,-0.5718922 0.887504,-0.5718922 0.197417,0 0.464797,-0.08904 0.609732,-0.203045 0.331605,-0.2608415 0.965136,-0.4310782 1.295591,-0.3481395 0.149075,0.037416 0.430736,-0.00431 0.666885,-0.098801 0.571094,-0.2285065 1.034373,-0.2066091 1.380264,0.06524 0.226492,0.1780079 0.438404,0.232749 0.954393,0.2465376 0.364791,0.00975 0.857749,0.048877 1.095461,0.086953 0.506634,0.081151 0.529045,0.016891 0.226581,-0.6496805 -0.110636,-0.2438199 -0.201157,-0.5527182 -0.201157,-0.6864407 0,-0.134112 -0.06045,-0.2431318 -0.134816,-0.2431318 -0.159772,0 -0.557909,-0.4051999 -0.720691,-0.7334759 C 19.537211,5.0470936 19.409315,4.9858982 19.073588,4.9616032 18.699194,4.93451 18.607362,4.8802957 18.431778,4.5827049 18.227401,4.2363098 18.225364,4.2355817 17.633874,4.2974047 17.127612,4.3503195 16.985902,4.325414 16.665089,4.1271406 16.307055,3.9058629 16.275894,3.9028198 16.005235,4.0627019 c -0.156241,0.092294 -0.402738,0.1678066 -0.547773,0.1678066 -0.145035,0 -0.549838,0.1324074 -0.899563,0.2942386 -0.349726,0.1618311 -0.809581,0.3244693 -1.021901,0.3614182 -0.293784,0.051126 -0.41136,0.1326993 -0.492007,0.3413546 -0.243159,0.6291159 -0.354499,0.7728827 -0.659835,0.8520034 -0.286463,0.07423 -0.322075,0.1279803 -0.370716,0.55952 -0.03369,0.2989056 -0.123785,0.5285686 -0.240964,0.6142516 -0.176452,0.1290251 -0.210025,0.3249652 -0.240043,1.4009424 -0.0031,0.1118644 0.01171,0.4142501 0.03295,0.6719682 0.07427,0.9010895 0.278979,0.9225145 0.865659,0.090603 z"
     id="path818"
     inkscape:connector-curvature="0" />
  <path
     style="fill:none;fill-opacity:1;stroke:#009688;stroke-width:0.10169491;stroke-opacity:0"
     d="m 12.19322,23.751929 c -0.223728,-0.05014 -0.624948,-0.118432 -0.891601,-0.151769 -0.310961,-0.03888 -0.580682,-0.149452 -0.752137,-0.308351 -0.168617,-0.156269 -0.388657,-0.247741 -0.5959476,-0.247741 -0.1830358,0 -0.390465,-0.07507 -0.468201,-0.169436 C 9.4085695,22.781442 9.1298155,22.534122 8.86588,22.325032 8.4849233,22.023238 8.2397529,21.920202 7.6765767,21.825209 7.2863954,21.759398 6.9134198,21.640802 6.8477419,21.561665 6.7561283,21.451277 6.569994,21.432495 6.0482273,21.480988 5.2971672,21.550792 4.9616616,21.438598 4.5256171,20.971822 4.3914861,20.828238 4.0407864,20.640713 3.7462845,20.555098 3.1732282,20.388506 2.6847458,19.936097 2.6847458,19.571952 c 0,-0.334664 -0.1886699,-0.584038 -0.6010273,-0.794407 -0.4351782,-0.222011 -0.5176168,-0.363886 -0.5176168,-0.890808 0,-0.198569 -0.086389,-0.503725 -0.191976,-0.678124 C 1.2558327,17.013228 1.1545993,16.585575 1.1103688,16.094394 1.0446427,15.3645 1.056629,15.280454 1.2524702,15.098 1.4251171,14.937156 1.445276,14.859357 1.3570323,14.694473 1.2969063,14.582126 1.1887476,14.467579 1.1166794,14.439924 0.97292603,14.384761 0.95015853,14.221726 0.92322485,13.054622 0.90731821,12.365348 0.87684103,12.248769 0.67569038,12.107771 0.13188318,11.726585 -0.02617868,10.781475 0.35163976,10.170152 0.53750809,9.8694105 0.54923062,9.7683895 0.45648125,9.266662 0.33131694,8.5895859 0.42039493,8.2978937 0.84912599,7.9809192 1.069229,7.81819 1.159322,7.6670605 1.159322,7.4605711 1.159322,7.1062819 1.3998942,6.6160078 1.6140677,6.5338216 1.7005187,6.5006473 1.8239636,6.3578137 1.8883899,6.2164134 1.952816,6.0750131 2.0553862,5.9584971 2.1163236,5.9574889 2.1772609,5.9564821 2.3809644,5.7704127 2.568998,5.5440047 2.8431416,5.2139134 2.899054,5.0732361 2.8512014,4.8339734 2.7898931,4.5274315 2.9222562,4.416204 3.0261539,4.6869573 3.0728269,4.8085852 3.2098184,4.8258107 3.7234748,4.7746391 4.4697669,4.7002919 4.7184985,4.5952102 4.7190242,4.3540491 4.7196649,4.0622646 5.1073238,3.5224639 5.4698452,3.3085711 5.7006632,3.1723851 5.8795573,2.9449027 6.0182088,2.6112701 6.1955293,2.1845892 6.3133531,2.0661229 6.8700115,1.7548217 7.2253211,1.5561214 7.6735606,1.2310168 7.8660992,1.0323673 8.1684118,0.72045993 8.2807455,0.67118644 8.6895197,0.67118644 c 0.2603426,0 0.6181446,0.0504756 0.7951158,0.11216811 0.2979676,0.10387207 0.3517617,0.0850685 0.7273325,-0.25423729 0.442196,-0.39949749 0.517318,-0.42229099 0.833713,-0.25296208 0.341322,0.18267026 1.703494,0.32103516 1.862376,0.18917412 0.10327,-0.0857063 0.161907,-0.0628047 0.247188,0.0965435 0.06149,0.11489683 0.24861,0.27964951 0.415819,0.36611705 0.16721,0.0864674 0.458836,0.32614965 0.648058,0.53262685 0.32598,0.355706 0.388605,0.3797668 1.192968,0.4583493 0.46691,0.045615 1.277367,0.092423 1.801015,0.1040189 l 0.952089,0.021083 0.383762,0.4322034 c 0.34792,0.3918361 0.428061,0.4322034 0.858047,0.4322034 0.769903,0 1.170183,0.3227609 1.421403,1.14613 0.03021,0.099016 0.190702,0.2071832 0.356648,0.2403722 0.299022,0.059805 0.557748,0.4483668 0.769641,1.1558707 0.04188,0.1398305 0.145318,0.333053 0.229865,0.4293836 0.110782,0.1262206 0.139874,0.3192819 0.104143,0.6911311 -0.03938,0.4097884 -0.0084,0.5682869 0.150315,0.7701077 0.142544,0.1812166 0.180386,0.333043 0.131902,0.5292079 -0.187824,0.7599228 -0.182392,0.8382016 0.08493,1.223954 0.208289,0.3005614 0.266179,0.5057437 0.266179,0.9434271 0,0.505151 0.03429,0.592568 0.354016,0.902457 0.443017,0.429388 0.559309,0.779137 0.558547,1.679823 -3.05e-4,0.391525 0.01131,0.949395 0.02587,1.239712 0.02289,0.456378 -0.01131,0.567285 -0.252589,0.819124 -0.239035,0.249498 -0.279061,0.376274 -0.279061,0.883873 0,0.545517 -0.02828,0.619267 -0.355933,0.928285 -0.195762,0.184628 -0.355932,0.404865 -0.355932,0.489416 0,0.08455 -0.227591,0.349772 -0.505758,0.589379 -0.278167,0.239607 -0.558536,0.563068 -0.623043,0.7188 -0.116273,0.280708 -0.26527,0.351387 -0.85425,0.40522 -0.249155,0.02277 -0.361014,0.125139 -0.610169,0.558386 -0.205019,0.356498 -0.371796,0.531614 -0.508475,0.533901 -0.111864,0.0019 -0.33038,0.162557 -0.485591,0.357081 -0.157356,0.197211 -0.426392,0.391044 -0.608127,0.438136 -0.278841,0.07226 -0.337871,0.144859 -0.408612,0.502573 -0.05079,0.25683 -0.229082,0.583083 -0.462201,0.845776 -0.335376,0.377921 -0.442168,0.433679 -0.918219,0.479421 -0.490915,0.04717 -0.560475,0.08625 -0.784119,0.440527 -0.336704,0.533373 -0.571589,0.636726 -1.297472,0.570905 -0.504536,-0.04575 -0.65549,-0.02052 -0.882792,0.147528 -0.322598,0.238507 -0.905789,0.311084 -1.474901,0.183547 z m 0.172934,-1.989592 c 0.215127,-0.111246 0.440985,-0.143001 0.71054,-0.0999 0.340403,0.05443 0.449501,0.01952 0.787251,-0.251899 0.23858,-0.191729 0.557639,-0.337293 0.814947,-0.371805 0.362805,-0.04866 0.450619,-0.111127 0.6183,-0.43981 0.220106,-0.431441 0.64757,-0.809095 0.915812,-0.809095 0.223472,0 0.30225,-0.198931 0.30225,-0.76324 0,-0.34798 0.07541,-0.54031 0.355932,-0.907817 0.363223,-0.475847 0.435329,-0.708549 0.254238,-0.820469 -0.137178,-0.08478 -0.128782,-0.724212 0.01472,-1.121056 0.100888,-0.278999 0.08744,-0.361345 -0.100821,-0.61739 -0.11948,-0.162498 -0.25872,-0.51945 -0.309424,-0.793223 -0.06858,-0.370311 -0.170971,-0.559426 -0.399852,-0.738553 -0.169214,-0.13243 -0.338293,-0.380244 -0.375731,-0.5507 -0.04611,-0.209951 -0.155238,-0.341431 -0.338311,-0.407614 -0.148632,-0.05373 -0.368694,-0.147831 -0.489027,-0.209109 -0.120331,-0.06128 -0.280143,-0.09096 -0.355137,-0.06596 -0.07499,0.025 -0.182472,-0.04536 -0.238841,-0.156346 -0.16755,-0.329893 -0.642444,-0.637381 -0.776835,-0.50299 -0.08483,0.08483 -0.162557,0.08444 -0.300183,-0.0015 -0.102143,-0.06379 -0.206899,-0.0948 -0.232792,-0.0689 -0.108561,0.108562 0.156333,1.064411 0.343235,1.238537 0.141717,0.132029 0.203068,0.320374 0.203068,0.623415 0,0.238825 0.06719,0.52306 0.149308,0.631631 0.08212,0.108572 0.150763,0.409439 0.152542,0.668593 0.0026,0.375956 -0.03511,0.481218 -0.186486,0.520803 -0.161752,0.0423 -0.182586,0.123858 -0.141327,0.55325 0.05146,0.535525 -0.222888,1.270698 -0.516186,1.383248 -0.07922,0.0304 -0.172827,0.207653 -0.208018,0.393898 -0.09858,0.521711 -0.422214,0.971045 -0.860421,1.194601 -0.403825,0.206016 -0.525006,0.374719 -0.525006,0.730888 0,0.10854 -0.192635,0.40633 -0.428079,0.661756 -0.427057,0.463302 -0.429342,0.464254 -0.956332,0.39841 -0.5347248,-0.06681 -0.7588363,0.03393 -0.5187552,0.233177 0.218853,0.181632 1.1132202,0.46126 1.6997762,0.531443 0.307628,0.03681 0.573036,0.07365 0.589796,0.08188 0.01676,0.0082 0.172393,-0.05844 0.34585,-0.148135 z M 6.7525424,18.982273 c 0,-0.164495 0.045763,-0.327366 0.1016949,-0.361934 0.055932,-0.03457 0.1023957,0.01993 0.1032522,0.121117 0.0035,0.413877 0.1531374,0.483058 0.9783495,0.452325 0.8213351,-0.03059 1.1757022,-0.151411 1.5021964,-0.512183 0.1187156,-0.131179 0.3174329,-0.213801 0.5142213,-0.213801 0.4168603,0 0.6795773,-0.199974 0.8200783,-0.624221 0.06823,-0.206027 0.260763,-0.438836 0.484514,-0.585871 0.237279,-0.155923 0.413678,-0.376157 0.488723,-0.610169 0.06459,-0.201399 0.186444,-0.44523 0.270795,-0.541846 0.105958,-0.121365 0.13473,-0.290497 0.09308,-0.547152 -0.03838,-0.236512 -0.006,-0.476535 0.08922,-0.660603 0.140762,-0.272204 0.13517,-0.957452 -0.01382,-1.69285 -0.06598,-0.325703 -0.308766,-0.283039 -0.434023,0.07627 -0.06861,0.196831 -0.17598,0.305085 -0.302581,0.305085 -0.235792,0 -0.373629,0.158574 -0.462961,0.532612 -0.03657,0.153105 -0.191605,0.35719 -0.344531,0.45352 -0.152925,0.09633 -0.442627,0.348604 -0.6437807,0.560609 -0.2904754,0.306143 -0.4405856,0.385462 -0.7294856,0.385462 -0.2398294,0 -0.4668935,0.08679 -0.6665086,0.254754 -0.3779479,0.318022 -0.7892986,0.404705 -1.278941,0.269509 -0.3272629,-0.09036 -0.4021255,-0.07775 -0.5477348,0.09231 -0.1270238,0.148353 -0.3002886,0.196982 -0.7018441,0.196982 -0.4532357,0 -0.5879766,-0.04811 -0.8986149,-0.320853 -0.3486962,-0.30616 -0.3865162,-0.316029 -0.8257977,-0.215508 -0.3187082,0.07293 -0.5469504,0.07266 -0.7417541,-9.15e-4 -0.4709751,-0.177773 -0.6019382,-0.05375 -0.6019382,0.570028 0,0.48319 0.038856,0.590169 0.3068998,0.844962 0.1687949,0.16045 0.3722907,0.416912 0.4522129,0.569916 0.081133,0.155321 0.2680133,0.308417 0.4231245,0.346632 0.1527962,0.03764 0.4150994,0.169756 0.582896,0.293581 0.1677966,0.123826 0.3564614,0.206224 0.4192551,0.183108 0.062794,-0.02312 0.1375015,0.04719 0.1660172,0.156233 0.034237,0.130922 0.2199735,0.249631 0.5468466,0.349502 0.7595322,0.232115 0.850932,0.218509 0.850932,-0.126616 z M 20.189637,17.240304 c 0.111861,-0.05987 0.293948,-0.320125 0.404638,-0.578354 0.11069,-0.258228 0.290734,-0.532179 0.400099,-0.608782 0.109366,-0.0766 0.198846,-0.186667 0.198846,-0.244589 0,-0.05792 0.0951,-0.226205 0.211321,-0.373963 0.185242,-0.235496 0.202894,-0.352571 0.143034,-0.948627 -0.04542,-0.452324 -0.02559,-0.798044 0.05924,-1.032634 0.114675,-0.31713 0.105387,-0.380802 -0.09219,-0.631976 -0.161693,-0.20556 -0.21971,-0.420101 -0.21971,-0.812472 0,-0.560881 -0.08337,-0.691382 -0.508474,-0.795931 -0.140385,-0.03452 -0.478282,-0.335836 -0.754536,-0.672837 -0.427049,-0.520955 -0.58165,-0.6339606 -1.055931,-0.7718376 -0.393578,-0.1144166 -0.587268,-0.1298887 -0.664107,-0.053049 -0.18241,0.1824101 -0.271189,0.1223766 -0.271189,-0.1833823 0,-0.2699102 -0.03633,-0.2974723 -0.483051,-0.3664999 -1.120277,-0.1731049 -2.005003,-4.475e-4 -3.453431,0.6739472 -0.696519,0.3243016 -0.987102,0.6307436 -0.846762,0.8929706 0.06784,0.126763 0.268399,0.170617 0.861103,0.188292 0.542756,0.01618 0.885232,0.08337 1.150981,0.225806 0.208074,0.111522 0.471779,0.202767 0.586009,0.202767 0.298653,0 0.640517,0.269578 0.678195,0.534793 0.02218,0.156151 0.112434,0.237413 0.286617,0.258072 0.701889,0.08325 0.985432,0.366307 1.039262,1.037498 0.02364,0.294787 0.08956,0.384439 0.384467,0.522903 0.583036,0.273744 0.761651,0.543547 0.762215,1.151345 4.07e-4,0.476738 0.03811,0.570372 0.344831,0.857148 0.327661,0.306354 0.341329,0.347306 0.282299,0.845732 -0.08387,0.70816 0.09641,0.929746 0.556224,0.68366 z M 7.7875891,14.126728 c 0.2881022,-0.03056 0.5449917,-0.126994 0.6513546,-0.244523 0.1123719,-0.12417 0.3107894,-0.194069 0.5508868,-0.194069 0.2402153,0 0.4385166,-0.0699 0.551045,-0.194244 0.096683,-0.106834 0.2800242,-0.220405 0.4074238,-0.252381 0.2752987,-0.0691 0.8173887,-0.809522 0.7401117,-1.0109 C 10.649934,12.130339 10.36022,12.073524 9.6849545,12.033824 8.4924366,11.963713 7.8480422,11.743652 7.5003251,11.287772 7.2911174,11.013486 7.1651284,10.942373 6.8883922,10.942373 c -0.4112871,0 -0.8468908,-0.375795 -0.8492715,-0.732666 C 6.0370817,9.9040832 5.9618071,9.8068885 5.5187448,9.5378003 5.053907,9.2554871 4.8854903,8.8656701 4.9738342,8.2765508 5.0335155,7.8785678 5.0078952,7.7866185 4.752875,7.4835441 4.5192458,7.2058916 4.4644068,7.0429245 4.4644068,6.6262918 4.4644068,6.1889889 4.433914,6.107669 4.2610169,6.0838808 3.9849446,6.0458971 3.2431248,6.9217489 3.0994487,7.4553209 3.0387793,7.6806298 2.8977705,7.9811319 2.7860958,8.1231033 2.6744211,8.2650746 2.5830508,8.5344865 2.5830508,8.7217964 c 0,0.1873098 -0.046515,0.5004307 -0.1033665,0.6958241 -0.089387,0.3072134 -0.075449,0.3782452 0.1030555,0.5252059 0.1135321,0.09347 0.2630132,0.1889936 0.3321801,0.2122756 0.099065,0.03335 0.099432,0.07424 0.00173,0.192685 -0.068216,0.08269 -0.1495771,0.399035 -0.1808022,0.702978 l -0.056773,0.552625 0.4838703,0.305085 c 0.3538048,0.223077 0.5117482,0.40076 0.5875818,0.661017 0.1449293,0.497388 0.2114734,0.575789 0.545401,0.642575 0.1613588,0.03227 0.4819497,0.239854 0.7124243,0.461293 0.3756312,0.360907 0.4597523,0.397159 0.8119689,0.349916 0.2572925,-0.03451 0.4947791,0.0038 0.6879971,0.110868 0.1735223,0.09619 0.3998016,0.138744 0.54931,0.103304 0.1398305,-0.03315 0.4683133,-0.08297 0.729961,-0.11072 z M 10.59661,11.023729 c 0.201719,-0.201719 0.143726,-0.3737 -0.336434,-0.997703 C 9.8399162,9.4798667 9.8118637,9.4079213 9.9235719,9.1627485 10.018271,8.9549061 10.018251,8.7936429 9.9234809,8.4393087 9.8292667,8.0870524 9.8289819,7.9324089 9.9222281,7.7594627 9.9886145,7.6363344 10.049416,7.2761687 10.057342,6.9590942 10.069042,6.491108 10.127852,6.3092614 10.369776,5.9929925 10.608983,5.680276 10.661256,5.5214476 10.63465,5.1881668 10.59444,4.684462 10.939482,4.2092163 11.489896,4.0101834 c 0.240915,-0.087116 0.374581,-0.2107643 0.417401,-0.3861186 0.03464,-0.1418798 0.190581,-0.4867767 0.346524,-0.7664377 0.433671,-0.7777274 0.33531,-0.8644068 -0.980908,-0.8644068 -0.927151,0 -1.088694,0.02595 -1.266133,0.2033899 -0.1118647,0.1118644 -0.2033902,0.2437198 -0.2033902,0.293012 0,0.049292 -0.2107502,0.1426898 -0.4683338,0.2075501 C 9.0612532,2.7661165 8.7651276,2.9295345 8.6221333,3.0906009 8.4876096,3.2421263 8.19497,3.5623616 7.9718232,3.8022349 7.7486764,4.0421081 7.5658198,4.3395657 7.5654752,4.4632518 7.5651294,4.5869379 7.4895454,4.8254237 7.397508,4.9932203 7.2831297,5.2017477 7.2371753,5.50034 7.2523096,5.9366586 7.2715567,6.4915473 7.240332,6.6155612 7.0134971,6.8851391 c -0.3276839,0.3894301 -0.329336,0.641522 -0.00672,1.0249323 0.1398305,0.1661792 0.2542372,0.4129077 0.2542372,0.5482856 0,0.1378986 0.1546545,0.4173258 0.3516798,0.6354092 0.1934238,0.2140971 0.3977373,0.5104084 0.4540301,0.6584697 0.064336,0.1692175 0.2075557,0.2940081 0.3856084,0.3359901 0.155792,0.03673 0.3976648,0.169072 0.5374953,0.294088 0.1398305,0.125015 0.4035755,0.277121 0.5860998,0.338014 0.1825244,0.06089 0.4329613,0.181526 0.5565263,0.268074 0.270295,0.189322 0.30734,0.192141 0.464153,0.03533 z m 1.834431,-1.6069207 c 0.27754,-0.3935498 0.555538,-0.6625949 0.782732,-0.7575227 0.193781,-0.080967 0.352329,-0.2148701 0.352329,-0.2975629 0,-0.2460901 0.505603,-0.5718922 0.887504,-0.5718922 0.197417,0 0.464797,-0.08904 0.609732,-0.203045 0.331605,-0.2608415 0.965136,-0.4310782 1.295591,-0.3481395 0.149075,0.037416 0.430736,-0.00431 0.666885,-0.098801 0.571094,-0.2285065 1.034373,-0.2066091 1.380264,0.06524 0.226492,0.1780079 0.438404,0.232749 0.954393,0.2465376 0.364791,0.00975 0.857749,0.048877 1.095461,0.086953 0.506634,0.081151 0.529045,0.016891 0.226581,-0.6496805 -0.110636,-0.2438199 -0.201157,-0.5527182 -0.201157,-0.6864407 0,-0.134112 -0.06045,-0.2431318 -0.134816,-0.2431318 -0.159772,0 -0.557909,-0.4051999 -0.720691,-0.7334759 C 19.537211,5.0470936 19.409315,4.9858982 19.073588,4.9616032 18.699194,4.93451 18.607362,4.8802957 18.431778,4.5827049 18.227401,4.2363098 18.225364,4.2355817 17.633874,4.2974047 17.127612,4.3503195 16.985902,4.325414 16.665089,4.1271406 16.307055,3.9058629 16.275894,3.9028198 16.005235,4.0627019 c -0.156241,0.092294 -0.402738,0.1678066 -0.547773,0.1678066 -0.145035,0 -0.549838,0.1324074 -0.899563,0.2942386 -0.349726,0.1618311 -0.809581,0.3244693 -1.021901,0.3614182 -0.293784,0.051126 -0.41136,0.1326993 -0.492007,0.3413546 -0.243159,0.6291159 -0.354499,0.7728827 -0.659835,0.8520034 -0.286463,0.07423 -0.322075,0.1279803 -0.370716,0.55952 -0.03369,0.2989056 -0.123785,0.5285686 -0.240964,0.6142516 -0.176452,0.1290251 -0.210025,0.3249652 -0.240043,1.4009424 -0.0031,0.1118644 0.01171,0.4142501 0.03295,0.6719682 0.07427,0.9010895 0.278979,0.9225145 0.865659,0.090603 z"
     id="path820"
     inkscape:connector-curvature="0" />
  <path
     style="fill:none;fill-opacity:1;stroke:#009688;stroke-width:0.10169491;stroke-opacity:0"
     d="m 12.19322,23.751929 c -0.223728,-0.05014 -0.624948,-0.118432 -0.891601,-0.151769 -0.310961,-0.03888 -0.580682,-0.149452 -0.752137,-0.308351 -0.168617,-0.156269 -0.388657,-0.247741 -0.5959476,-0.247741 -0.1830358,0 -0.390465,-0.07507 -0.468201,-0.169436 C 9.4085695,22.781442 9.1298155,22.534122 8.86588,22.325032 8.4849233,22.023238 8.2397529,21.920202 7.6765767,21.825209 7.2863954,21.759398 6.9134198,21.640802 6.8477419,21.561665 6.7561283,21.451277 6.569994,21.432495 6.0482273,21.480988 5.2971672,21.550792 4.9616616,21.438598 4.5256171,20.971822 4.3914861,20.828238 4.0407864,20.640713 3.7462845,20.555098 3.1732282,20.388506 2.6847458,19.936097 2.6847458,19.571952 c 0,-0.334664 -0.1886699,-0.584038 -0.6010273,-0.794407 -0.4351782,-0.222011 -0.5176168,-0.363886 -0.5176168,-0.890808 0,-0.198569 -0.086389,-0.503725 -0.191976,-0.678124 C 1.2558327,17.013228 1.1545993,16.585575 1.1103688,16.094394 1.0446427,15.3645 1.056629,15.280454 1.2524702,15.098 1.4251171,14.937156 1.445276,14.859357 1.3570323,14.694473 1.2969063,14.582126 1.1887476,14.467579 1.1166794,14.439924 0.97292603,14.384761 0.95015853,14.221726 0.92322485,13.054622 0.90731821,12.365348 0.87684103,12.248769 0.67569038,12.107771 0.13188318,11.726585 -0.02617868,10.781475 0.35163976,10.170152 0.53750809,9.8694105 0.54923062,9.7683895 0.45648125,9.266662 0.33131694,8.5895859 0.42039493,8.2978937 0.84912599,7.9809192 1.069229,7.81819 1.159322,7.6670605 1.159322,7.4605711 1.159322,7.1062819 1.3998942,6.6160078 1.6140677,6.5338216 1.7005187,6.5006473 1.8239636,6.3578137 1.8883899,6.2164134 1.952816,6.0750131 2.0553862,5.9584971 2.1163236,5.9574889 2.1772609,5.9564821 2.3809644,5.7704127 2.568998,5.5440047 2.8431416,5.2139134 2.899054,5.0732361 2.8512014,4.8339734 2.7898931,4.5274315 2.9222562,4.416204 3.0261539,4.6869573 3.0728269,4.8085852 3.2098184,4.8258107 3.7234748,4.7746391 4.4697669,4.7002919 4.7184985,4.5952102 4.7190242,4.3540491 4.7196649,4.0622646 5.1073238,3.5224639 5.4698452,3.3085711 5.7006632,3.1723851 5.8795573,2.9449027 6.0182088,2.6112701 6.1955293,2.1845892 6.3133531,2.0661229 6.8700115,1.7548217 7.2253211,1.5561214 7.6735606,1.2310168 7.8660992,1.0323673 8.1684118,0.72045993 8.2807455,0.67118644 8.6895197,0.67118644 c 0.2603426,0 0.6181446,0.0504756 0.7951158,0.11216811 0.2979676,0.10387207 0.3517617,0.0850685 0.7273325,-0.25423729 0.442196,-0.39949749 0.517318,-0.42229099 0.833713,-0.25296208 0.341322,0.18267026 1.703494,0.32103516 1.862376,0.18917412 0.10327,-0.0857063 0.161907,-0.0628047 0.247188,0.0965435 0.06149,0.11489683 0.24861,0.27964951 0.415819,0.36611705 0.16721,0.0864674 0.458836,0.32614965 0.648058,0.53262685 0.32598,0.355706 0.388605,0.3797668 1.192968,0.4583493 0.46691,0.045615 1.277367,0.092423 1.801015,0.1040189 l 0.952089,0.021083 0.383762,0.4322034 c 0.34792,0.3918361 0.428061,0.4322034 0.858047,0.4322034 0.769903,0 1.170183,0.3227609 1.421403,1.14613 0.03021,0.099016 0.190702,0.2071832 0.356648,0.2403722 0.299022,0.059805 0.557748,0.4483668 0.769641,1.1558707 0.04188,0.1398305 0.145318,0.333053 0.229865,0.4293836 0.110782,0.1262206 0.139874,0.3192819 0.104143,0.6911311 -0.03938,0.4097884 -0.0084,0.5682869 0.150315,0.7701077 0.142544,0.1812166 0.180386,0.333043 0.131902,0.5292079 -0.187824,0.7599228 -0.182392,0.8382016 0.08493,1.223954 0.208289,0.3005614 0.266179,0.5057437 0.266179,0.9434271 0,0.505151 0.03429,0.592568 0.354016,0.902457 0.443017,0.429388 0.559309,0.779137 0.558547,1.679823 -3.05e-4,0.391525 0.01131,0.949395 0.02587,1.239712 0.02289,0.456378 -0.01131,0.567285 -0.252589,0.819124 -0.239035,0.249498 -0.279061,0.376274 -0.279061,0.883873 0,0.545517 -0.02828,0.619267 -0.355933,0.928285 -0.195762,0.184628 -0.355932,0.404865 -0.355932,0.489416 0,0.08455 -0.227591,0.349772 -0.505758,0.589379 -0.278167,0.239607 -0.558536,0.563068 -0.623043,0.7188 -0.116273,0.280708 -0.26527,0.351387 -0.85425,0.40522 -0.249155,0.02277 -0.361014,0.125139 -0.610169,0.558386 -0.205019,0.356498 -0.371796,0.531614 -0.508475,0.533901 -0.111864,0.0019 -0.33038,0.162557 -0.485591,0.357081 -0.157356,0.197211 -0.426392,0.391044 -0.608127,0.438136 -0.278841,0.07226 -0.337871,0.144859 -0.408612,0.502573 -0.05079,0.25683 -0.229082,0.583083 -0.462201,0.845776 -0.335376,0.377921 -0.442168,0.433679 -0.918219,0.479421 -0.490915,0.04717 -0.560475,0.08625 -0.784119,0.440527 -0.336704,0.533373 -0.571589,0.636726 -1.297472,0.570905 -0.504536,-0.04575 -0.65549,-0.02052 -0.882792,0.147528 -0.322598,0.238507 -0.905789,0.311084 -1.474901,0.183547 z m 0.172934,-1.989592 c 0.215127,-0.111246 0.440985,-0.143001 0.71054,-0.0999 0.340403,0.05443 0.449501,0.01952 0.787251,-0.251899 0.23858,-0.191729 0.557639,-0.337293 0.814947,-0.371805 0.362805,-0.04866 0.450619,-0.111127 0.6183,-0.43981 0.220106,-0.431441 0.64757,-0.809095 0.915812,-0.809095 0.223472,0 0.30225,-0.198931 0.30225,-0.76324 0,-0.34798 0.07541,-0.54031 0.355932,-0.907817 0.363223,-0.475847 0.435329,-0.708549 0.254238,-0.820469 -0.137178,-0.08478 -0.128782,-0.724212 0.01472,-1.121056 0.100888,-0.278999 0.08744,-0.361345 -0.100821,-0.61739 -0.11948,-0.162498 -0.25872,-0.51945 -0.309424,-0.793223 -0.06858,-0.370311 -0.170971,-0.559426 -0.399852,-0.738553 -0.169214,-0.13243 -0.338293,-0.380244 -0.375731,-0.5507 -0.04611,-0.209951 -0.155238,-0.341431 -0.338311,-0.407614 -0.148632,-0.05373 -0.368694,-0.147831 -0.489027,-0.209109 -0.120331,-0.06128 -0.280143,-0.09096 -0.355137,-0.06596 -0.07499,0.025 -0.182472,-0.04536 -0.238841,-0.156346 -0.16755,-0.329893 -0.642444,-0.637381 -0.776835,-0.50299 -0.08483,0.08483 -0.162557,0.08444 -0.300183,-0.0015 -0.102143,-0.06379 -0.206899,-0.0948 -0.232792,-0.0689 -0.108561,0.108562 0.156333,1.064411 0.343235,1.238537 0.141717,0.132029 0.203068,0.320374 0.203068,0.623415 0,0.238825 0.06719,0.52306 0.149308,0.631631 0.08212,0.108572 0.150763,0.409439 0.152542,0.668593 0.0026,0.375956 -0.03511,0.481218 -0.186486,0.520803 -0.161752,0.0423 -0.182586,0.123858 -0.141327,0.55325 0.05146,0.535525 -0.222888,1.270698 -0.516186,1.383248 -0.07922,0.0304 -0.172827,0.207653 -0.208018,0.393898 -0.09858,0.521711 -0.422214,0.971045 -0.860421,1.194601 -0.403825,0.206016 -0.525006,0.374719 -0.525006,0.730888 0,0.10854 -0.192635,0.40633 -0.428079,0.661756 -0.427057,0.463302 -0.429342,0.464254 -0.956332,0.39841 -0.5347248,-0.06681 -0.7588363,0.03393 -0.5187552,0.233177 0.218853,0.181632 1.1132202,0.46126 1.6997762,0.531443 0.307628,0.03681 0.573036,0.07365 0.589796,0.08188 0.01676,0.0082 0.172393,-0.05844 0.34585,-0.148135 z M 6.7525424,18.982273 c 0,-0.164495 0.045763,-0.327366 0.1016949,-0.361934 0.055932,-0.03457 0.1023957,0.01993 0.1032522,0.121117 0.0035,0.413877 0.1531374,0.483058 0.9783495,0.452325 0.8213351,-0.03059 1.1757022,-0.151411 1.5021964,-0.512183 0.1187156,-0.131179 0.3174329,-0.213801 0.5142213,-0.213801 0.4168603,0 0.6795773,-0.199974 0.8200783,-0.624221 0.06823,-0.206027 0.260763,-0.438836 0.484514,-0.585871 0.237279,-0.155923 0.413678,-0.376157 0.488723,-0.610169 0.06459,-0.201399 0.186444,-0.44523 0.270795,-0.541846 0.105958,-0.121365 0.13473,-0.290497 0.09308,-0.547152 -0.03838,-0.236512 -0.006,-0.476535 0.08922,-0.660603 0.140762,-0.272204 0.13517,-0.957452 -0.01382,-1.69285 -0.06598,-0.325703 -0.308766,-0.283039 -0.434023,0.07627 -0.06861,0.196831 -0.17598,0.305085 -0.302581,0.305085 -0.235792,0 -0.373629,0.158574 -0.462961,0.532612 -0.03657,0.153105 -0.191605,0.35719 -0.344531,0.45352 -0.152925,0.09633 -0.442627,0.348604 -0.6437807,0.560609 -0.2904754,0.306143 -0.4405856,0.385462 -0.7294856,0.385462 -0.2398294,0 -0.4668935,0.08679 -0.6665086,0.254754 -0.3779479,0.318022 -0.7892986,0.404705 -1.278941,0.269509 -0.3272629,-0.09036 -0.4021255,-0.07775 -0.5477348,0.09231 -0.1270238,0.148353 -0.3002886,0.196982 -0.7018441,0.196982 -0.4532357,0 -0.5879766,-0.04811 -0.8986149,-0.320853 -0.3486962,-0.30616 -0.3865162,-0.316029 -0.8257977,-0.215508 -0.3187082,0.07293 -0.5469504,0.07266 -0.7417541,-9.15e-4 -0.4709751,-0.177773 -0.6019382,-0.05375 -0.6019382,0.570028 0,0.48319 0.038856,0.590169 0.3068998,0.844962 0.1687949,0.16045 0.3722907,0.416912 0.4522129,0.569916 0.081133,0.155321 0.2680133,0.308417 0.4231245,0.346632 0.1527962,0.03764 0.4150994,0.169756 0.582896,0.293581 0.1677966,0.123826 0.3564614,0.206224 0.4192551,0.183108 0.062794,-0.02312 0.1375015,0.04719 0.1660172,0.156233 0.034237,0.130922 0.2199735,0.249631 0.5468466,0.349502 0.7595322,0.232115 0.850932,0.218509 0.850932,-0.126616 z M 20.189637,17.240304 c 0.111861,-0.05987 0.293948,-0.320125 0.404638,-0.578354 0.11069,-0.258228 0.290734,-0.532179 0.400099,-0.608782 0.109366,-0.0766 0.198846,-0.186667 0.198846,-0.244589 0,-0.05792 0.0951,-0.226205 0.211321,-0.373963 0.185242,-0.235496 0.202894,-0.352571 0.143034,-0.948627 -0.04542,-0.452324 -0.02559,-0.798044 0.05924,-1.032634 0.114675,-0.31713 0.105387,-0.380802 -0.09219,-0.631976 -0.161693,-0.20556 -0.21971,-0.420101 -0.21971,-0.812472 0,-0.560881 -0.08337,-0.691382 -0.508474,-0.795931 -0.140385,-0.03452 -0.478282,-0.335836 -0.754536,-0.672837 -0.427049,-0.520955 -0.58165,-0.6339606 -1.055931,-0.7718376 -0.393578,-0.1144166 -0.587268,-0.1298887 -0.664107,-0.053049 -0.18241,0.1824101 -0.271189,0.1223766 -0.271189,-0.1833823 0,-0.2699102 -0.03633,-0.2974723 -0.483051,-0.3664999 -1.120277,-0.1731049 -2.005003,-4.475e-4 -3.453431,0.6739472 -0.696519,0.3243016 -0.987102,0.6307436 -0.846762,0.8929706 0.06784,0.126763 0.268399,0.170617 0.861103,0.188292 0.542756,0.01618 0.885232,0.08337 1.150981,0.225806 0.208074,0.111522 0.471779,0.202767 0.586009,0.202767 0.298653,0 0.640517,0.269578 0.678195,0.534793 0.02218,0.156151 0.112434,0.237413 0.286617,0.258072 0.701889,0.08325 0.985432,0.366307 1.039262,1.037498 0.02364,0.294787 0.08956,0.384439 0.384467,0.522903 0.583036,0.273744 0.761651,0.543547 0.762215,1.151345 4.07e-4,0.476738 0.03811,0.570372 0.344831,0.857148 0.327661,0.306354 0.341329,0.347306 0.282299,0.845732 -0.08387,0.70816 0.09641,0.929746 0.556224,0.68366 z M 7.7875891,14.126728 c 0.2881022,-0.03056 0.5449917,-0.126994 0.6513546,-0.244523 0.1123719,-0.12417 0.3107894,-0.194069 0.5508868,-0.194069 0.2402153,0 0.4385166,-0.0699 0.551045,-0.194244 0.096683,-0.106834 0.2800242,-0.220405 0.4074238,-0.252381 0.2752987,-0.0691 0.8173887,-0.809522 0.7401117,-1.0109 C 10.649934,12.130339 10.36022,12.073524 9.6849545,12.033824 8.4924366,11.963713 7.8480422,11.743652 7.5003251,11.287772 7.2911174,11.013486 7.1651284,10.942373 6.8883922,10.942373 c -0.4112871,0 -0.8468908,-0.375795 -0.8492715,-0.732666 C 6.0370817,9.9040832 5.9618071,9.8068885 5.5187448,9.5378003 5.053907,9.2554871 4.8854903,8.8656701 4.9738342,8.2765508 5.0335155,7.8785678 5.0078952,7.7866185 4.752875,7.4835441 4.5192458,7.2058916 4.4644068,7.0429245 4.4644068,6.6262918 4.4644068,6.1889889 4.433914,6.107669 4.2610169,6.0838808 3.9849446,6.0458971 3.2431248,6.9217489 3.0994487,7.4553209 3.0387793,7.6806298 2.8977705,7.9811319 2.7860958,8.1231033 2.6744211,8.2650746 2.5830508,8.5344865 2.5830508,8.7217964 c 0,0.1873098 -0.046515,0.5004307 -0.1033665,0.6958241 -0.089387,0.3072134 -0.075449,0.3782452 0.1030555,0.5252059 0.1135321,0.09347 0.2630132,0.1889936 0.3321801,0.2122756 0.099065,0.03335 0.099432,0.07424 0.00173,0.192685 -0.068216,0.08269 -0.1495771,0.399035 -0.1808022,0.702978 l -0.056773,0.552625 0.4838703,0.305085 c 0.3538048,0.223077 0.5117482,0.40076 0.5875818,0.661017 0.1449293,0.497388 0.2114734,0.575789 0.545401,0.642575 0.1613588,0.03227 0.4819497,0.239854 0.7124243,0.461293 0.3756312,0.360907 0.4597523,0.397159 0.8119689,0.349916 0.2572925,-0.03451 0.4947791,0.0038 0.6879971,0.110868 0.1735223,0.09619 0.3998016,0.138744 0.54931,0.103304 0.1398305,-0.03315 0.4683133,-0.08297 0.729961,-0.11072 z M 10.59661,11.023729 c 0.201719,-0.201719 0.143726,-0.3737 -0.336434,-0.997703 C 9.8399162,9.4798667 9.8118637,9.4079213 9.9235719,9.1627485 10.018271,8.9549061 10.018251,8.7936429 9.9234809,8.4393087 9.8292667,8.0870524 9.8289819,7.9324089 9.9222281,7.7594627 9.9886145,7.6363344 10.049416,7.2761687 10.057342,6.9590942 10.069042,6.491108 10.127852,6.3092614 10.369776,5.9929925 10.608983,5.680276 10.661256,5.5214476 10.63465,5.1881668 10.59444,4.684462 10.939482,4.2092163 11.489896,4.0101834 c 0.240915,-0.087116 0.374581,-0.2107643 0.417401,-0.3861186 0.03464,-0.1418798 0.190581,-0.4867767 0.346524,-0.7664377 0.433671,-0.7777274 0.33531,-0.8644068 -0.980908,-0.8644068 -0.927151,0 -1.088694,0.02595 -1.266133,0.2033899 -0.1118647,0.1118644 -0.2033902,0.2437198 -0.2033902,0.293012 0,0.049292 -0.2107502,0.1426898 -0.4683338,0.2075501 C 9.0612532,2.7661165 8.7651276,2.9295345 8.6221333,3.0906009 8.4876096,3.2421263 8.19497,3.5623616 7.9718232,3.8022349 7.7486764,4.0421081 7.5658198,4.3395657 7.5654752,4.4632518 7.5651294,4.5869379 7.4895454,4.8254237 7.397508,4.9932203 7.2831297,5.2017477 7.2371753,5.50034 7.2523096,5.9366586 7.2715567,6.4915473 7.240332,6.6155612 7.0134971,6.8851391 c -0.3276839,0.3894301 -0.329336,0.641522 -0.00672,1.0249323 0.1398305,0.1661792 0.2542372,0.4129077 0.2542372,0.5482856 0,0.1378986 0.1546545,0.4173258 0.3516798,0.6354092 0.1934238,0.2140971 0.3977373,0.5104084 0.4540301,0.6584697 0.064336,0.1692175 0.2075557,0.2940081 0.3856084,0.3359901 0.155792,0.03673 0.3976648,0.169072 0.5374953,0.294088 0.1398305,0.125015 0.4035755,0.277121 0.5860998,0.338014 0.1825244,0.06089 0.4329613,0.181526 0.5565263,0.268074 0.270295,0.189322 0.30734,0.192141 0.464153,0.03533 z m 1.834431,-1.6069207 c 0.27754,-0.3935498 0.555538,-0.6625949 0.782732,-0.7575227 0.193781,-0.080967 0.352329,-0.2148701 0.352329,-0.2975629 0,-0.2460901 0.505603,-0.5718922 0.887504,-0.5718922 0.197417,0 0.464797,-0.08904 0.609732,-0.203045 0.331605,-0.2608415 0.965136,-0.4310782 1.295591,-0.3481395 0.149075,0.037416 0.430736,-0.00431 0.666885,-0.098801 0.571094,-0.2285065 1.034373,-0.2066091 1.380264,0.06524 0.226492,0.1780079 0.438404,0.232749 0.954393,0.2465376 0.364791,0.00975 0.857749,0.048877 1.095461,0.086953 0.506634,0.081151 0.529045,0.016891 0.226581,-0.6496805 -0.110636,-0.2438199 -0.201157,-0.5527182 -0.201157,-0.6864407 0,-0.134112 -0.06045,-0.2431318 -0.134816,-0.2431318 -0.159772,0 -0.557909,-0.4051999 -0.720691,-0.7334759 C 19.537211,5.0470936 19.409315,4.9858982 19.073588,4.9616032 18.699194,4.93451 18.607362,4.8802957 18.431778,4.5827049 18.227401,4.2363098 18.225364,4.2355817 17.633874,4.2974047 17.127612,4.3503195 16.985902,4.325414 16.665089,4.1271406 16.307055,3.9058629 16.275894,3.9028198 16.005235,4.0627019 c -0.156241,0.092294 -0.402738,0.1678066 -0.547773,0.1678066 -0.145035,0 -0.549838,0.1324074 -0.899563,0.2942386 -0.349726,0.1618311 -0.809581,0.3244693 -1.021901,0.3614182 -0.293784,0.051126 -0.41136,0.1326993 -0.492007,0.3413546 -0.243159,0.6291159 -0.354499,0.7728827 -0.659835,0.8520034 -0.286463,0.07423 -0.322075,0.1279803 -0.370716,0.55952 -0.03369,0.2989056 -0.123785,0.5285686 -0.240964,0.6142516 -0.176452,0.1290251 -0.210025,0.3249652 -0.240043,1.4009424 -0.0031,0.1118644 0.01171,0.4142501 0.03295,0.6719682 0.07427,0.9010895 0.278979,0.9225145 0.865659,0.090603 z"
     id="path822"
     inkscape:connector-curvature="0" />
  <path
     style="fill:none;fill-opacity:1;stroke:#009688;stroke-width:0.10169491;stroke-opacity:0"
     d="m 12.19322,23.751929 c -0.223728,-0.05014 -0.624948,-0.118432 -0.891601,-0.151769 -0.310961,-0.03888 -0.580682,-0.149452 -0.752137,-0.308351 -0.168617,-0.156269 -0.388657,-0.247741 -0.5959476,-0.247741 -0.1830358,0 -0.390465,-0.07507 -0.468201,-0.169436 C 9.4085695,22.781442 9.1298155,22.534122 8.86588,22.325032 8.4849233,22.023238 8.2397529,21.920202 7.6765767,21.825209 7.2863954,21.759398 6.9134198,21.640802 6.8477419,21.561665 6.7561283,21.451277 6.569994,21.432495 6.0482273,21.480988 5.2971672,21.550792 4.9616616,21.438598 4.5256171,20.971822 4.3914861,20.828238 4.0407864,20.640713 3.7462845,20.555098 3.1732282,20.388506 2.6847458,19.936097 2.6847458,19.571952 c 0,-0.334664 -0.1886699,-0.584038 -0.6010273,-0.794407 -0.4351782,-0.222011 -0.5176168,-0.363886 -0.5176168,-0.890808 0,-0.198569 -0.086389,-0.503725 -0.191976,-0.678124 C 1.2558327,17.013228 1.1545993,16.585575 1.1103688,16.094394 1.0446427,15.3645 1.056629,15.280454 1.2524702,15.098 1.4251171,14.937156 1.445276,14.859357 1.3570323,14.694473 1.2969063,14.582126 1.1887476,14.467579 1.1166794,14.439924 0.97292603,14.384761 0.95015853,14.221726 0.92322485,13.054622 0.90731821,12.365348 0.87684103,12.248769 0.67569038,12.107771 0.13188318,11.726585 -0.02617868,10.781475 0.35163976,10.170152 0.53750809,9.8694105 0.54923062,9.7683895 0.45648125,9.266662 0.33131694,8.5895859 0.42039493,8.2978937 0.84912599,7.9809192 1.069229,7.81819 1.159322,7.6670605 1.159322,7.4605711 1.159322,7.1062819 1.3998942,6.6160078 1.6140677,6.5338216 1.7005187,6.5006473 1.8239636,6.3578137 1.8883899,6.2164134 1.952816,6.0750131 2.0553862,5.9584971 2.1163236,5.9574889 2.1772609,5.9564821 2.3809644,5.7704127 2.568998,5.5440047 2.8431416,5.2139134 2.899054,5.0732361 2.8512014,4.8339734 2.7898931,4.5274315 2.9222562,4.416204 3.0261539,4.6869573 3.0728269,4.8085852 3.2098184,4.8258107 3.7234748,4.7746391 4.4697669,4.7002919 4.7184985,4.5952102 4.7190242,4.3540491 4.7196649,4.0622646 5.1073238,3.5224639 5.4698452,3.3085711 5.7006632,3.1723851 5.8795573,2.9449027 6.0182088,2.6112701 6.1955293,2.1845892 6.3133531,2.0661229 6.8700115,1.7548217 7.2253211,1.5561214 7.6735606,1.2310168 7.8660992,1.0323673 8.1684118,0.72045993 8.2807455,0.67118644 8.6895197,0.67118644 c 0.2603426,0 0.6181446,0.0504756 0.7951158,0.11216811 0.2979676,0.10387207 0.3517617,0.0850685 0.7273325,-0.25423729 0.442196,-0.39949749 0.517318,-0.42229099 0.833713,-0.25296208 0.341322,0.18267026 1.703494,0.32103516 1.862376,0.18917412 0.10327,-0.0857063 0.161907,-0.0628047 0.247188,0.0965435 0.06149,0.11489683 0.24861,0.27964951 0.415819,0.36611705 0.16721,0.0864674 0.458836,0.32614965 0.648058,0.53262685 0.32598,0.355706 0.388605,0.3797668 1.192968,0.4583493 0.46691,0.045615 1.277367,0.092423 1.801015,0.1040189 l 0.952089,0.021083 0.383762,0.4322034 c 0.34792,0.3918361 0.428061,0.4322034 0.858047,0.4322034 0.769903,0 1.170183,0.3227609 1.421403,1.14613 0.03021,0.099016 0.190702,0.2071832 0.356648,0.2403722 0.299022,0.059805 0.557748,0.4483668 0.769641,1.1558707 0.04188,0.1398305 0.145318,0.333053 0.229865,0.4293836 0.110782,0.1262206 0.139874,0.3192819 0.104143,0.6911311 -0.03938,0.4097884 -0.0084,0.5682869 0.150315,0.7701077 0.142544,0.1812166 0.180386,0.333043 0.131902,0.5292079 -0.187824,0.7599228 -0.182392,0.8382016 0.08493,1.223954 0.208289,0.3005614 0.266179,0.5057437 0.266179,0.9434271 0,0.505151 0.03429,0.592568 0.354016,0.902457 0.443017,0.429388 0.559309,0.779137 0.558547,1.679823 -3.05e-4,0.391525 0.01131,0.949395 0.02587,1.239712 0.02289,0.456378 -0.01131,0.567285 -0.252589,0.819124 -0.239035,0.249498 -0.279061,0.376274 -0.279061,0.883873 0,0.545517 -0.02828,0.619267 -0.355933,0.928285 -0.195762,0.184628 -0.355932,0.404865 -0.355932,0.489416 0,0.08455 -0.227591,0.349772 -0.505758,0.589379 -0.278167,0.239607 -0.558536,0.563068 -0.623043,0.7188 -0.116273,0.280708 -0.26527,0.351387 -0.85425,0.40522 -0.249155,0.02277 -0.361014,0.125139 -0.610169,0.558386 -0.205019,0.356498 -0.371796,0.531614 -0.508475,0.533901 -0.111864,0.0019 -0.33038,0.162557 -0.485591,0.357081 -0.157356,0.197211 -0.426392,0.391044 -0.608127,0.438136 -0.278841,0.07226 -0.337871,0.144859 -0.408612,0.502573 -0.05079,0.25683 -0.229082,0.583083 -0.462201,0.845776 -0.335376,0.377921 -0.442168,0.433679 -0.918219,0.479421 -0.490915,0.04717 -0.560475,0.08625 -0.784119,0.440527 -0.336704,0.533373 -0.571589,0.636726 -1.297472,0.570905 -0.504536,-0.04575 -0.65549,-0.02052 -0.882792,0.147528 -0.322598,0.238507 -0.905789,0.311084 -1.474901,0.183547 z m 0.172934,-1.989592 c 0.215127,-0.111246 0.440985,-0.143001 0.71054,-0.0999 0.340403,0.05443 0.449501,0.01952 0.787251,-0.251899 0.23858,-0.191729 0.557639,-0.337293 0.814947,-0.371805 0.362805,-0.04866 0.450619,-0.111127 0.6183,-0.43981 0.220106,-0.431441 0.64757,-0.809095 0.915812,-0.809095 0.223472,0 0.30225,-0.198931 0.30225,-0.76324 0,-0.34798 0.07541,-0.54031 0.355932,-0.907817 0.363223,-0.475847 0.435329,-0.708549 0.254238,-0.820469 -0.137178,-0.08478 -0.128782,-0.724212 0.01472,-1.121056 0.100888,-0.278999 0.08744,-0.361345 -0.100821,-0.61739 -0.11948,-0.162498 -0.25872,-0.51945 -0.309424,-0.793223 -0.06858,-0.370311 -0.170971,-0.559426 -0.399852,-0.738553 -0.169214,-0.13243 -0.338293,-0.380244 -0.375731,-0.5507 -0.04611,-0.209951 -0.155238,-0.341431 -0.338311,-0.407614 -0.148632,-0.05373 -0.368694,-0.147831 -0.489027,-0.209109 -0.120331,-0.06128 -0.280143,-0.09096 -0.355137,-0.06596 -0.07499,0.025 -0.182472,-0.04536 -0.238841,-0.156346 -0.16755,-0.329893 -0.642444,-0.637381 -0.776835,-0.50299 -0.08483,0.08483 -0.162557,0.08444 -0.300183,-0.0015 -0.102143,-0.06379 -0.206899,-0.0948 -0.232792,-0.0689 -0.108561,0.108562 0.156333,1.064411 0.343235,1.238537 0.141717,0.132029 0.203068,0.320374 0.203068,0.623415 0,0.238825 0.06719,0.52306 0.149308,0.631631 0.08212,0.108572 0.150763,0.409439 0.152542,0.668593 0.0026,0.375956 -0.03511,0.481218 -0.186486,0.520803 -0.161752,0.0423 -0.182586,0.123858 -0.141327,0.55325 0.05146,0.535525 -0.222888,1.270698 -0.516186,1.383248 -0.07922,0.0304 -0.172827,0.207653 -0.208018,0.393898 -0.09858,0.521711 -0.422214,0.971045 -0.860421,1.194601 -0.403825,0.206016 -0.525006,0.374719 -0.525006,0.730888 0,0.10854 -0.192635,0.40633 -0.428079,0.661756 -0.427057,0.463302 -0.429342,0.464254 -0.956332,0.39841 -0.5347248,-0.06681 -0.7588363,0.03393 -0.5187552,0.233177 0.218853,0.181632 1.1132202,0.46126 1.6997762,0.531443 0.307628,0.03681 0.573036,0.07365 0.589796,0.08188 0.01676,0.0082 0.172393,-0.05844 0.34585,-0.148135 z M 6.7525424,18.982273 c 0,-0.164495 0.045763,-0.327366 0.1016949,-0.361934 0.055932,-0.03457 0.1023957,0.01993 0.1032522,0.121117 0.0035,0.413877 0.1531374,0.483058 0.9783495,0.452325 0.8213351,-0.03059 1.1757022,-0.151411 1.5021964,-0.512183 0.1187156,-0.131179 0.3174329,-0.213801 0.5142213,-0.213801 0.4168603,0 0.6795773,-0.199974 0.8200783,-0.624221 0.06823,-0.206027 0.260763,-0.438836 0.484514,-0.585871 0.237279,-0.155923 0.413678,-0.376157 0.488723,-0.610169 0.06459,-0.201399 0.186444,-0.44523 0.270795,-0.541846 0.105958,-0.121365 0.13473,-0.290497 0.09308,-0.547152 -0.03838,-0.236512 -0.006,-0.476535 0.08922,-0.660603 0.140762,-0.272204 0.13517,-0.957452 -0.01382,-1.69285 -0.06598,-0.325703 -0.308766,-0.283039 -0.434023,0.07627 -0.06861,0.196831 -0.17598,0.305085 -0.302581,0.305085 -0.235792,0 -0.373629,0.158574 -0.462961,0.532612 -0.03657,0.153105 -0.191605,0.35719 -0.344531,0.45352 -0.152925,0.09633 -0.442627,0.348604 -0.6437807,0.560609 -0.2904754,0.306143 -0.4405856,0.385462 -0.7294856,0.385462 -0.2398294,0 -0.4668935,0.08679 -0.6665086,0.254754 -0.3779479,0.318022 -0.7892986,0.404705 -1.278941,0.269509 -0.3272629,-0.09036 -0.4021255,-0.07775 -0.5477348,0.09231 -0.1270238,0.148353 -0.3002886,0.196982 -0.7018441,0.196982 -0.4532357,0 -0.5879766,-0.04811 -0.8986149,-0.320853 -0.3486962,-0.30616 -0.3865162,-0.316029 -0.8257977,-0.215508 -0.3187082,0.07293 -0.5469504,0.07266 -0.7417541,-9.15e-4 -0.4709751,-0.177773 -0.6019382,-0.05375 -0.6019382,0.570028 0,0.48319 0.038856,0.590169 0.3068998,0.844962 0.1687949,0.16045 0.3722907,0.416912 0.4522129,0.569916 0.081133,0.155321 0.2680133,0.308417 0.4231245,0.346632 0.1527962,0.03764 0.4150994,0.169756 0.582896,0.293581 0.1677966,0.123826 0.3564614,0.206224 0.4192551,0.183108 0.062794,-0.02312 0.1375015,0.04719 0.1660172,0.156233 0.034237,0.130922 0.2199735,0.249631 0.5468466,0.349502 0.7595322,0.232115 0.850932,0.218509 0.850932,-0.126616 z M 20.189637,17.240304 c 0.111861,-0.05987 0.293948,-0.320125 0.404638,-0.578354 0.11069,-0.258228 0.290734,-0.532179 0.400099,-0.608782 0.109366,-0.0766 0.198846,-0.186667 0.198846,-0.244589 0,-0.05792 0.0951,-0.226205 0.211321,-0.373963 0.185242,-0.235496 0.202894,-0.352571 0.143034,-0.948627 -0.04542,-0.452324 -0.02559,-0.798044 0.05924,-1.032634 0.114675,-0.31713 0.105387,-0.380802 -0.09219,-0.631976 -0.161693,-0.20556 -0.21971,-0.420101 -0.21971,-0.812472 0,-0.560881 -0.08337,-0.691382 -0.508474,-0.795931 -0.140385,-0.03452 -0.478282,-0.335836 -0.754536,-0.672837 -0.427049,-0.520955 -0.58165,-0.6339606 -1.055931,-0.7718376 -0.393578,-0.1144166 -0.587268,-0.1298887 -0.664107,-0.053049 -0.18241,0.1824101 -0.271189,0.1223766 -0.271189,-0.1833823 0,-0.2699102 -0.03633,-0.2974723 -0.483051,-0.3664999 -1.120277,-0.1731049 -2.005003,-4.475e-4 -3.453431,0.6739472 -0.696519,0.3243016 -0.987102,0.6307436 -0.846762,0.8929706 0.06784,0.126763 0.268399,0.170617 0.861103,0.188292 0.542756,0.01618 0.885232,0.08337 1.150981,0.225806 0.208074,0.111522 0.471779,0.202767 0.586009,0.202767 0.298653,0 0.640517,0.269578 0.678195,0.534793 0.02218,0.156151 0.112434,0.237413 0.286617,0.258072 0.701889,0.08325 0.985432,0.366307 1.039262,1.037498 0.02364,0.294787 0.08956,0.384439 0.384467,0.522903 0.583036,0.273744 0.761651,0.543547 0.762215,1.151345 4.07e-4,0.476738 0.03811,0.570372 0.344831,0.857148 0.327661,0.306354 0.341329,0.347306 0.282299,0.845732 -0.08387,0.70816 0.09641,0.929746 0.556224,0.68366 z M 7.7875891,14.126728 c 0.2881022,-0.03056 0.5449917,-0.126994 0.6513546,-0.244523 0.1123719,-0.12417 0.3107894,-0.194069 0.5508868,-0.194069 0.2402153,0 0.4385166,-0.0699 0.551045,-0.194244 0.096683,-0.106834 0.2800242,-0.220405 0.4074238,-0.252381 0.2752987,-0.0691 0.8173887,-0.809522 0.7401117,-1.0109 C 10.649934,12.130339 10.36022,12.073524 9.6849545,12.033824 8.4924366,11.963713 7.8480422,11.743652 7.5003251,11.287772 7.2911174,11.013486 7.1651284,10.942373 6.8883922,10.942373 c -0.4112871,0 -0.8468908,-0.375795 -0.8492715,-0.732666 C 6.0370817,9.9040832 5.9618071,9.8068885 5.5187448,9.5378003 5.053907,9.2554871 4.8854903,8.8656701 4.9738342,8.2765508 5.0335155,7.8785678 5.0078952,7.7866185 4.752875,7.4835441 4.5192458,7.2058916 4.4644068,7.0429245 4.4644068,6.6262918 4.4644068,6.1889889 4.433914,6.107669 4.2610169,6.0838808 3.9849446,6.0458971 3.2431248,6.9217489 3.0994487,7.4553209 3.0387793,7.6806298 2.8977705,7.9811319 2.7860958,8.1231033 2.6744211,8.2650746 2.5830508,8.5344865 2.5830508,8.7217964 c 0,0.1873098 -0.046515,0.5004307 -0.1033665,0.6958241 -0.089387,0.3072134 -0.075449,0.3782452 0.1030555,0.5252059 0.1135321,0.09347 0.2630132,0.1889936 0.3321801,0.2122756 0.099065,0.03335 0.099432,0.07424 0.00173,0.192685 -0.068216,0.08269 -0.1495771,0.399035 -0.1808022,0.702978 l -0.056773,0.552625 0.4838703,0.305085 c 0.3538048,0.223077 0.5117482,0.40076 0.5875818,0.661017 0.1449293,0.497388 0.2114734,0.575789 0.545401,0.642575 0.1613588,0.03227 0.4819497,0.239854 0.7124243,0.461293 0.3756312,0.360907 0.4597523,0.397159 0.8119689,0.349916 0.2572925,-0.03451 0.4947791,0.0038 0.6879971,0.110868 0.1735223,0.09619 0.3998016,0.138744 0.54931,0.103304 0.1398305,-0.03315 0.4683133,-0.08297 0.729961,-0.11072 z M 10.59661,11.023729 c 0.201719,-0.201719 0.143726,-0.3737 -0.336434,-0.997703 C 9.8399162,9.4798667 9.8118637,9.4079213 9.9235719,9.1627485 10.018271,8.9549061 10.018251,8.7936429 9.9234809,8.4393087 9.8292667,8.0870524 9.8289819,7.9324089 9.9222281,7.7594627 9.9886145,7.6363344 10.049416,7.2761687 10.057342,6.9590942 10.069042,6.491108 10.127852,6.3092614 10.369776,5.9929925 10.608983,5.680276 10.661256,5.5214476 10.63465,5.1881668 10.59444,4.684462 10.939482,4.2092163 11.489896,4.0101834 c 0.240915,-0.087116 0.374581,-0.2107643 0.417401,-0.3861186 0.03464,-0.1418798 0.190581,-0.4867767 0.346524,-0.7664377 0.433671,-0.7777274 0.33531,-0.8644068 -0.980908,-0.8644068 -0.927151,0 -1.088694,0.02595 -1.266133,0.2033899 -0.1118647,0.1118644 -0.2033902,0.2437198 -0.2033902,0.293012 0,0.049292 -0.2107502,0.1426898 -0.4683338,0.2075501 C 9.0612532,2.7661165 8.7651276,2.9295345 8.6221333,3.0906009 8.4876096,3.2421263 8.19497,3.5623616 7.9718232,3.8022349 7.7486764,4.0421081 7.5658198,4.3395657 7.5654752,4.4632518 7.5651294,4.5869379 7.4895454,4.8254237 7.397508,4.9932203 7.2831297,5.2017477 7.2371753,5.50034 7.2523096,5.9366586 7.2715567,6.4915473 7.240332,6.6155612 7.0134971,6.8851391 c -0.3276839,0.3894301 -0.329336,0.641522 -0.00672,1.0249323 0.1398305,0.1661792 0.2542372,0.4129077 0.2542372,0.5482856 0,0.1378986 0.1546545,0.4173258 0.3516798,0.6354092 0.1934238,0.2140971 0.3977373,0.5104084 0.4540301,0.6584697 0.064336,0.1692175 0.2075557,0.2940081 0.3856084,0.3359901 0.155792,0.03673 0.3976648,0.169072 0.5374953,0.294088 0.1398305,0.125015 0.4035755,0.277121 0.5860998,0.338014 0.1825244,0.06089 0.4329613,0.181526 0.5565263,0.268074 0.270295,0.189322 0.30734,0.192141 0.464153,0.03533 z m 1.834431,-1.6069207 c 0.27754,-0.3935498 0.555538,-0.6625949 0.782732,-0.7575227 0.193781,-0.080967 0.352329,-0.2148701 0.352329,-0.2975629 0,-0.2460901 0.505603,-0.5718922 0.887504,-0.5718922 0.197417,0 0.464797,-0.08904 0.609732,-0.203045 0.331605,-0.2608415 0.965136,-0.4310782 1.295591,-0.3481395 0.149075,0.037416 0.430736,-0.00431 0.666885,-0.098801 0.571094,-0.2285065 1.034373,-0.2066091 1.380264,0.06524 0.226492,0.1780079 0.438404,0.232749 0.954393,0.2465376 0.364791,0.00975 0.857749,0.048877 1.095461,0.086953 0.506634,0.081151 0.529045,0.016891 0.226581,-0.6496805 -0.110636,-0.2438199 -0.201157,-0.5527182 -0.201157,-0.6864407 0,-0.134112 -0.06045,-0.2431318 -0.134816,-0.2431318 -0.159772,0 -0.557909,-0.4051999 -0.720691,-0.7334759 C 19.537211,5.0470936 19.409315,4.9858982 19.073588,4.9616032 18.699194,4.93451 18.607362,4.8802957 18.431778,4.5827049 18.227401,4.2363098 18.225364,4.2355817 17.633874,4.2974047 17.127612,4.3503195 16.985902,4.325414 16.665089,4.1271406 16.307055,3.9058629 16.275894,3.9028198 16.005235,4.0627019 c -0.156241,0.092294 -0.402738,0.1678066 -0.547773,0.1678066 -0.145035,0 -0.549838,0.1324074 -0.899563,0.2942386 -0.349726,0.1618311 -0.809581,0.3244693 -1.021901,0.3614182 -0.293784,0.051126 -0.41136,0.1326993 -0.492007,0.3413546 -0.243159,0.6291159 -0.354499,0.7728827 -0.659835,0.8520034 -0.286463,0.07423 -0.322075,0.1279803 -0.370716,0.55952 -0.03369,0.2989056 -0.123785,0.5285686 -0.240964,0.6142516 -0.176452,0.1290251 -0.210025,0.3249652 -0.240043,1.4009424 -0.0031,0.1118644 0.01171,0.4142501 0.03295,0.6719682 0.07427,0.9010895 0.278979,0.9225145 0.865659,0.090603 z"
     id="path824"
     inkscape:connector-curvature="0" />
</svg>
